<?xml version="1.0" encoding="UTF-8"?><svg id="uuid-646e5871-733d-4559-aaef-b119641bec79" xmlns="http://www.w3.org/2000/svg" viewBox="0 0 69.48 53"><defs><style>.uuid-1fa77506-de60-4a01-907d-aa08c63de16b{fill:#2677c0;stroke-width:0px;}</style></defs><path class="uuid-1fa77506-de60-4a01-907d-aa08c63de16b" d="M64.09,44.33h0s-4.65-14.05-4.65-14.05V5.32c0-1.17-.95-2.11-2.11-2.11H12.15c-1.17,0-2.11.95-2.11,2.11l-.04,25.18-4.61,13.83c-.45,1.35-.27,2.74.49,3.8.76,1.06,2.02,1.67,3.45,1.67h50.82c1.43,0,2.69-.61,3.45-1.67.76-1.06.94-2.44.49-3.8ZM14.26,7.44h40.95v21.18H14.26V7.44ZM9.44,45.56l4.24-12.71h42.13l4.24,12.71H9.44Z"/><rect class="uuid-1fa77506-de60-4a01-907d-aa08c63de16b" x="29.8" y="37.09" width="9.88" height="4.23"/></svg>