<?xml version="1.0" encoding="UTF-8"?>
<svg id="Layer_1" data-name="Layer 1" xmlns="http://www.w3.org/2000/svg" viewBox="0 0 120 120">
  <defs>
    <style>
      .cls-1 {
        fill: #01bff3;
        stroke-width: 0px;
      }
    </style>
  </defs>
  <g>
    <path class="cls-1" d="M27.98,89.15h6.59c4.65,0,8.09,1.61,8.09,6.45s-3.46,6.78-7.96,6.78h-3.01v7.69h-3.71v-20.93ZM34.39,99.42c3.12,0,4.61-1.24,4.61-3.81s-1.63-3.48-4.74-3.48h-2.57v7.29h2.7Z"/>
    <path class="cls-1" d="M44.22,105.86c0-3.37,2.79-5.12,9.24-5.81-.05-1.69-.73-3.1-2.85-3.1-1.56,0-3.03.7-4.42,1.55l-1.36-2.46c1.73-1.09,3.96-2.06,6.45-2.06,3.93,0,5.86,2.42,5.86,6.8v9.3h-3.02l-.28-1.74h-.1c-1.41,1.2-3.02,2.12-4.88,2.12-2.75,0-4.65-1.87-4.65-4.61ZM53.46,105.87v-3.53c-4.26.54-5.68,1.65-5.68,3.24,0,1.39.95,2,2.27,2s2.25-.63,3.42-1.7Z"/>
    <path class="cls-1" d="M60.73,105.86c0-3.37,2.79-5.12,9.24-5.81-.05-1.69-.73-3.1-2.85-3.1-1.56,0-3.03.7-4.42,1.55l-1.36-2.46c1.73-1.09,3.96-2.06,6.45-2.06,3.93,0,5.86,2.42,5.86,6.8v9.3h-3.02l-.28-1.74h-.1c-1.41,1.2-3.02,2.12-4.88,2.12-2.75,0-4.65-1.87-4.65-4.61ZM69.97,105.87v-3.53c-4.26.54-5.68,1.65-5.68,3.24,0,1.39.95,2,2.27,2s2.25-.63,3.42-1.7Z"/>
    <path class="cls-1" d="M76.97,107.4l2.16-2.55c1.5,1.43,3.51,2.39,5.45,2.39,2.35,0,3.65-1.07,3.65-2.7,0-1.72-1.35-2.27-3.25-3.08l-2.86-1.24c-2.06-.86-4.23-2.49-4.23-5.55,0-3.33,2.94-5.9,7.03-5.9,2.44,0,4.81,1.01,6.45,2.67l-1.91,2.35c-1.33-1.13-2.75-1.8-4.54-1.8-1.98,0-3.28.93-3.28,2.46,0,1.64,1.59,2.25,3.33,2.96l2.82,1.18c2.49,1.04,4.23,2.61,4.23,5.64,0,3.39-2.82,6.22-7.51,6.22-2.83,0-5.56-1.11-7.54-3.07Z"/>
  </g>
  <g>
    <path class="cls-1" d="M79.53,37.1V15.8c0-.1-.02-.21-.05-.32,0-.03-.02-.06-.03-.09-.03-.09-.07-.17-.12-.24l-.25.11.21-.17c-.06-.09-.13-.17-.22-.25l-.06-.05c-.07-.06-.15-.11-.22-.14l-18.36-8.61c-.4-.19-.87-.19-1.27,0l-17.97,8.6c-.08.04-.16.1-.24.16l.16.21-.21-.16c-.08.07-.16.16-.22.25l-.04.06c-.05.08-.08.16-.12.26l-.02.07c-.03.12-.05.23-.05.33v21.28c0,.51.3.97.78,1.2l18.11,8.7s.09.04.13.05l.13-.23-.06.25.09.03c.12.03.24.05.36.05s.23-.02.36-.05l.09-.03-.1-.24.17.22s.09-.03.13-.05l18.11-8.7c.48-.23.78-.69.78-1.2ZM59.66,46.83h0s0,0,0,0h0ZM60.38,46.81h0s0,0,0,0ZM60,23.01l-14.96-7.19,14.79-7.07,15.11,7.09-14.94,7.18ZM76.69,36.27l-15.27,7.33v-18.26l15.27-7.33v18.26ZM78.64,14.86s0,0,0,0h0s0,0,0,0Z"/>
    <path class="cls-1" d="M101.06,51.91c0-.1-.02-.21-.05-.32l-.03-.08c-.03-.09-.07-.17-.12-.25l-.25.11.21-.17c-.06-.09-.13-.17-.22-.25l-.06-.05c-.08-.06-.16-.11-.22-.14l-18.36-8.61c-.4-.19-.87-.19-1.27,0l-17.97,8.6c-.09.04-.17.1-.24.16l.16.21-.21-.16c-.08.07-.16.16-.22.25l-.03.06c-.05.08-.08.16-.12.26l-.02.07c-.03.12-.05.23-.05.33v21.28c0,.51.3.97.78,1.2l18.11,8.7s.09.04.19.07l.09.03c.12.03.24.05.36.05s.23-.02.36-.05l.15-.05s.09-.03.14-.05l18.11-8.7c.48-.23.78-.69.78-1.2v-21.3ZM81.19,82.94h0s0,0,0,0h0ZM81.54,59.13l-14.96-7.19,14.79-7.07,15.11,7.09-14.94,7.18ZM98.22,72.39l-15.27,7.33v-18.26l15.27-7.33v18.26ZM100.17,50.97s0,0,0,0h0s0,0,0,0Z"/>
    <path class="cls-1" d="M57.99,51.93v-.02c0-.1-.02-.21-.05-.32,0-.03-.02-.06-.03-.08-.03-.09-.07-.17-.12-.24l-.25.11.21-.17c-.06-.09-.13-.17-.22-.25l-.06-.04c-.07-.06-.16-.11-.22-.14l-18.36-8.61c-.4-.19-.87-.19-1.27,0l-17.97,8.6c-.09.04-.16.1-.24.16l.16.21-.22-.16c-.08.07-.15.16-.22.25l-.03.06c-.05.08-.08.16-.12.26l-.02.07c-.03.12-.05.23-.05.33v21.28c0,.51.3.97.78,1.2l18.11,8.7s.09.04.19.07l.09.03c.12.03.24.05.36.05s.23-.02.36-.05l.15-.05s.09-.03.14-.05l18.11-8.7c.48-.23.78-.69.78-1.2v-21.28s0,0,0,0ZM38.12,82.94h0s0,0,0,0h0ZM38.46,59.13l-14.96-7.19,14.79-7.07,15.12,7.09-14.94,7.18ZM55.15,72.39l-15.27,7.33v-18.26l15.27-7.33v18.26ZM57.1,50.97s0,0,0,0h0s0,0,0,0Z"/>
  </g>
</svg>