<svg xmlns="http://www.w3.org/2000/svg" width="48" height="47.96" viewBox="0 0 48 47.96">
  <g id="Icon_ionic-ios-rocket" data-name="Icon ionic-ios-rocket" transform="translate(-3.366 -3.372)">
    <path id="Path_1729" data-name="Path 1729" d="M51.113,4.023a.509.509,0,0,0-.381-.392C44.457,2.1,29.958,7.564,22.1,15.42a33.955,33.955,0,0,0-3.818,4.51,14.207,14.207,0,0,0-6.91.865c-5.825,2.561-7.521,9.251-7.994,12.123a1.033,1.033,0,0,0,1.13,1.2l9.355-1.027a20.8,20.8,0,0,0,.127,2.111,2.094,2.094,0,0,0,.611,1.28L18.227,40.1a2.094,2.094,0,0,0,1.28.611,20.756,20.756,0,0,0,2.1.127L20.58,50.186a1.033,1.033,0,0,0,1.2,1.13c2.872-.461,9.574-2.157,12.123-7.982a14.271,14.271,0,0,0,.877-6.886A34.009,34.009,0,0,0,39.3,32.63C47.191,24.786,52.624,10.609,51.113,4.023ZM32.288,22.467a4.927,4.927,0,1,1,6.967,0A4.922,4.922,0,0,1,32.288,22.467Z" fill="#006bbd"/>
    <path id="Path_1730" data-name="Path 1730" d="M16.422,28.94h0a4.376,4.376,0,0,1-2.284.923,3.1,3.1,0,0,1-3.576-3.576,4.29,4.29,0,0,1,.911-2.272L11.485,24a.386.386,0,0,0-.323-.658,5.3,5.3,0,0,0-3.1,1.511c-2.076,2.076-2.272,9.782-2.272,9.782s7.717-.2,9.793-2.272a5.268,5.268,0,0,0,1.511-3.1A.4.4,0,0,0,16.422,28.94Z" transform="translate(1.551 12.791)" fill="#006bbd"/>
  </g>
</svg>
