<svg xmlns="http://www.w3.org/2000/svg" xmlns:xlink="http://www.w3.org/1999/xlink" viewBox="0 0 420.2 133.87"><defs><linearGradient id="linear-gradient" x1="62.24" y1="112.02" x2="40.6" y2="157.92" gradientTransform="translate(0 -40)" gradientUnits="userSpaceOnUse"><stop offset="0" stop-color="#15a9a9"/><stop offset="0.23" stop-color="#1895a0"/><stop offset="0.69" stop-color="#206189"/><stop offset="0.99" stop-color="#253c78"/></linearGradient></defs><title>Gradient</title><g id="Layer_2" data-name="Layer 2"><g id="Layer_1-2" data-name="Layer 1"><path d="M91.7,89.48a2.94,2.94,0,0,0-4-.1,30.57,30.57,0,1,1,0-44.8,2.94,2.94,0,0,0,4-.1l21.7-21.7a2.87,2.87,0,0,0,0-4.1h0A67,67,0,0,0,1.8,51.58a2.86,2.86,0,0,0,2.1,3.5H4a1.7,1.7,0,0,0,1,0H19.7a2.93,2.93,0,0,0,2.7-1.9,2.51,2.51,0,0,0,.4-.7,46.13,46.13,0,0,1,58.3-29.3,48.72,48.72,0,0,1,15.4,8.6l-6.8,6.8a36.34,36.34,0,0,0-51,5.7,36.91,36.91,0,0,0-7.8,19.8H2.9a3.06,3.06,0,0,0-2.9,3A2.9,2.9,0,0,0,2.9,70H30.8a36.22,36.22,0,0,0,39,33.3,36.91,36.91,0,0,0,19.8-7.8l6.8,6.8a46,46,0,0,1-65-5.4,44.92,44.92,0,0,1-8.6-15.4c0-.1-.1-.1-.1-.2A2.89,2.89,0,0,0,19.9,79H4.6a2.8,2.8,0,0,0-2.8,2.4v.2a.85.85,0,0,0,0,.7v.3A67,67,0,0,0,82.7,132a67.75,67.75,0,0,0,30.7-16.8,2.87,2.87,0,0,0,0-4.1h0ZM66.6,15.08a51.8,51.8,0,0,0-48.8,34.3H8.4A61.1,61.1,0,0,1,84.6,8.48,62,62,0,0,1,107.2,21l-6.8,6.8A51.41,51.41,0,0,0,66.6,15.08Zm.4,113.1A61,61,0,0,1,8.4,84.78h9.4a51.93,51.93,0,0,0,66.4,31.1,54,54,0,0,0,16.2-9.5l6.8,6.8A60.55,60.55,0,0,1,67,128.18Z" style="fill:url(#linear-gradient)"/><path d="M244.8,51.45a12.31,12.31,0,0,0-2-.2c-.7,0-1.6-.1-2.2-.1a17.73,17.73,0,0,0-2.2.1,12.31,12.31,0,0,0-2,.2v40l-.2.1a27.33,27.33,0,0,1-8.1,1.1,21,21,0,0,1-5.6-.7,8.45,8.45,0,0,1-4.2-2.4,12.08,12.08,0,0,1-2.6-4.7,31.42,31.42,0,0,1-.9-7.5V51.45a12.31,12.31,0,0,0-2-.2,19.3,19.3,0,0,0-2.3-.1,17.73,17.73,0,0,0-2.2.1,12.31,12.31,0,0,0-2,.2v26.2a33.54,33.54,0,0,0,1.7,11.4,16.67,16.67,0,0,0,4.7,6.7,14.92,14.92,0,0,0,6.9,3.1,48.9,48.9,0,0,0,8.5.8,58.39,58.39,0,0,0,9.3-.8,71.51,71.51,0,0,0,7.5-1.7Z" style="fill:#1b3c4f"/><path d="M292.5,93.55a16,16,0,0,0-1-3.1,35.25,35.25,0,0,1-12.4,2.2c-5.1,0-9-1.3-11.6-3.7s-4-6.4-4.1-11.6v-.3h32.4c0-.6.1-1.3.2-2.2a25.28,25.28,0,0,0,.1-2.7,28.67,28.67,0,0,0-1.3-8.7,19.6,19.6,0,0,0-3.7-6.8,17.93,17.93,0,0,0-6.1-4.5,20.73,20.73,0,0,0-8.5-1.6,22.09,22.09,0,0,0-9.8,2,18.81,18.81,0,0,0-6.9,5.3,21.31,21.31,0,0,0-4.1,7.9,32.62,32.62,0,0,0-1.3,9.8,32.72,32.72,0,0,0,1.4,9.8,19.11,19.11,0,0,0,11.9,12.7,29.55,29.55,0,0,0,11,1.8,52.87,52.87,0,0,0,8-.6,33.62,33.62,0,0,0,6.4-1.8A35.85,35.85,0,0,0,292.5,93.55Zm-29-23.1a17.11,17.11,0,0,1,3.7-9.7c2-2.3,5.1-3.5,8.9-3.5a11.16,11.16,0,0,1,5.1,1.1,9.91,9.91,0,0,1,3.5,2.9,13.8,13.8,0,0,1,2.1,4.2,16.79,16.79,0,0,1,.7,5v.3H263.3Z" style="fill:#1b3c4f"/><path d="M420,69.45c0-6-1.3-10.7-3.8-13.7s-6.5-4.6-11.8-4.6a15.28,15.28,0,0,0-5.2.8,16.22,16.22,0,0,0-4.2,2,14.32,14.32,0,0,0-3.2,2.8,16.58,16.58,0,0,0-2.3,3.1l-.6,1.1v-1.3a25.61,25.61,0,0,0-.3-3.9c-.2-1.4-.3-2.6-.5-3.5a10,10,0,0,0-1.6-.2,24.1,24.1,0,0,0-3.8,0c-.5.1-1.1.1-1.7.2v47.2a12.31,12.31,0,0,0,2,.2c.7,0,1.6.1,2.3.1a19.3,19.3,0,0,0,2.3-.1c.9-.1,1.4-.1,2-.2v-24a21.89,21.89,0,0,1,1.1-7.6,14.81,14.81,0,0,1,2.9-5.2,12.46,12.46,0,0,1,4.2-3,14.37,14.37,0,0,1,5-1c3.1,0,5.4,1.1,6.8,3.3s2.1,5.4,2.1,9.9v27.5a11.24,11.24,0,0,0,2,.2c.8,0,1.6.1,2.2.1a20.15,20.15,0,0,0,2.3-.1c.9-.1,1.4-.1,2-.2Z" style="fill:#1b3c4f"/><path d="M197.5,92.75a15.5,15.5,0,0,1-4.3-.1,4.33,4.33,0,0,1-2-1.1,5.64,5.64,0,0,1-1.3-2.4,15.09,15.09,0,0,1-.5-4.2V34.25a29.55,29.55,0,0,0-8.4,0v52.8a15.65,15.65,0,0,0,1,6.1,9.82,9.82,0,0,0,6.6,6,16.46,16.46,0,0,0,4.9.6c1,0,2.2,0,3.4-.1a12.61,12.61,0,0,0,2.8-.5,23.64,23.64,0,0,0-.8-6.5C198.5,92.65,198,92.75,197.5,92.75Z" style="fill:#1b3c4f"/><path d="M336.2,34.25V52l-.4-.1a29.79,29.79,0,0,0-4.3-.9,38.84,38.84,0,0,0-4.8-.4,26,26,0,0,0-9.6,1.8,20.3,20.3,0,0,0-7.4,5.2,22.5,22.5,0,0,0-4.8,8A30.66,30.66,0,0,0,303.2,76a27.93,27.93,0,0,0,1.9,11.1A18.7,18.7,0,0,0,318,98.45a33.23,33.23,0,0,0,9.4,1.2,63.31,63.31,0,0,0,9.7-.7,64.06,64.06,0,0,0,7.6-1.6V34.25a30,30,0,0,0-4.3-.3A19.81,19.81,0,0,0,336.2,34.25Zm0,57.4-.2.1a22,22,0,0,1-3.7.7,33.89,33.89,0,0,1-4.5.2q-7.2,0-11.4-3.9c-2.8-2.6-4.2-6.9-4.3-12.8a29.79,29.79,0,0,1,.9-7.3,17.13,17.13,0,0,1,2.7-5.8,12.64,12.64,0,0,1,4.7-3.9,14.18,14.18,0,0,1,6.7-1.4,24.87,24.87,0,0,1,4.7.4,18.23,18.23,0,0,1,4,1.1l.2.1Z" style="fill:#1b3c4f"/><path d="M368.8,66.05V34.35l-2.3-.3a17,17,0,0,0-2.2-.1,19.3,19.3,0,0,0-2.3.1,18.1,18.1,0,0,0-2.3.3v33.3h0v31.7l2.3.3a17,17,0,0,0,2.2.1,19.3,19.3,0,0,0,2.3-.1,18.1,18.1,0,0,0,2.3-.3V66.05Z" style="fill:#1b3c4f"/><path d="M169.38,90.42a31,31,0,0,1-5.65,1.74,34.67,34.67,0,0,1-7,.64,24.49,24.49,0,0,1-9-1.56,18.16,18.16,0,0,1-6.88-4.71,21.68,21.68,0,0,1-4.42-7.91,36.76,36.76,0,0,1-1.56-11.28c0-8.45,1.87-15,5.57-19.54s9-6.82,15.61-6.82c1.52,0,2.89,0,4.07.13s2.29.24,3.26.42,1.89.4,2.75.64,1.59.47,2.43.75c.5-1.23.94-2.43,1.32-3.55a17.08,17.08,0,0,0,.74-3.61,52,52,0,0,0-6.43-1.66,47.22,47.22,0,0,0-8.87-.72,31.77,31.77,0,0,0-12.55,2.39,26,26,0,0,0-9.46,6.81,30.6,30.6,0,0,0-6,10.69,44.87,44.87,0,0,0-2.08,14.07,43.29,43.29,0,0,0,2.08,13.85,29.35,29.35,0,0,0,6,10.42,25.9,25.9,0,0,0,9.51,6.58,33.4,33.4,0,0,0,12.69,2.3,48.48,48.48,0,0,0,8.6-.72,36.36,36.36,0,0,0,7.59-2.28A24.52,24.52,0,0,0,169.38,90.42Z" style="fill:#1b3c4f"/></g></g></svg>