<?xml version="1.0" encoding="UTF-8"?>
<svg id="Layer_1" data-name="Layer 1" xmlns="http://www.w3.org/2000/svg" viewBox="16.5 15.99 31 32">
  <defs>
    <style>
      .cls-1 {
        fill: #2677C0;
        stroke-width: 0px;
      }
    </style>
  </defs>
  <path class="cls-1" d="M34.95,48h-5.91c-.57,0-1.04-.46-1.04-1.04v-3.68c-1.38-.49-2.67-1.23-3.79-2.18l-3.18,1.84c-.49.29-1.13.12-1.42-.38l-2.95-5.12c-.14-.24-.17-.52-.1-.79s.24-.49.48-.63l3.19-1.84c-.14-.74-.21-1.47-.21-2.18s.07-1.45.21-2.18l-3.19-1.84c-.24-.14-.41-.36-.48-.63s-.03-.55.1-.79l2.95-5.12c.29-.5.92-.67,1.42-.38l3.18,1.84c1.12-.95,2.4-1.69,3.79-2.18v-3.68c0-.57.46-1.04,1.04-1.04h5.91c.57,0,1.04.46,1.04,1.04v3.68c1.38.49,2.67,1.23,3.79,2.18l3.18-1.84c.5-.29,1.13-.12,1.42.38l2.95,5.12c.14.24.17.52.1.79s-.24.49-.48.63l-3.19,1.84c.14.74.21,1.47.21,2.18s-.07,1.45-.21,2.18l3.19,1.84c.24.14.41.36.48.63s.03.55-.1.79l-2.95,5.12c-.29.5-.92.67-1.42.38l-3.18-1.84c-1.12.95-2.4,1.69-3.79,2.18v3.68c0,.57-.46,1.04-1.04,1.04ZM30.08,45.92h3.83v-3.4c0-.47.31-.87.76-1,1.59-.45,3.06-1.29,4.24-2.45.33-.33.84-.39,1.24-.16l2.94,1.7,1.92-3.32-2.95-1.7c-.4-.23-.6-.7-.49-1.15.21-.83.32-1.65.32-2.45s-.11-1.62-.32-2.45c-.11-.45.08-.92.49-1.15l2.95-1.7-1.92-3.32-2.94,1.7c-.4.23-.91.17-1.24-.16-1.18-1.15-2.65-2-4.24-2.45-.45-.12-.76-.53-.76-1v-3.4h-3.83v3.4c0,.47-.31.87-.76,1-1.59.45-3.06,1.29-4.24,2.45-.33.33-.84.39-1.24.16l-2.94-1.7-1.92,3.32,2.95,1.7c.4.23.6.7.49,1.15-.21.83-.32,1.65-.32,2.45s.11,1.62.32,2.45c.11.45-.08.92-.49,1.15l-2.95,1.7,1.92,3.32,2.94-1.7c.4-.23.91-.17,1.24.16,1.18,1.15,2.65,2,4.24,2.45.45.13.76.53.76,1v3.4Z"/>
  <polygon class="cls-1" points="38 30.71 33.29 30.71 33.29 26 30.71 26 30.71 30.71 26 30.71 26 33.29 30.71 33.29 30.71 38 33.29 38 33.29 33.29 38 33.29 38 30.71"/>
</svg>