<?xml version="1.0" encoding="UTF-8"?>
<svg id="Layer_1" data-name="Layer 1" xmlns="http://www.w3.org/2000/svg" viewBox="0 0 120 120">
  <defs>
    <style>
      .cls-1 {
        fill: #fef7ec;
      }

      .cls-1, .cls-2 {
        stroke-width: 0px;
      }

      .cls-2 {
        fill: #e48f10;
      }
    </style>
  </defs>
  <circle class="cls-1" cx="60" cy="60" r="57.51"/>
  <g>
    <g>
      <polygon class="cls-2" points="72.4 45.58 69.66 50.28 86.05 56.23 59.5 66.17 33.95 56.36 48.55 50.78 45.79 46.06 28.84 52.54 28.84 68.06 59.4 79.78 91.16 67.9 91.16 52.38 72.4 45.58"/>
      <path class="cls-2" d="M58.97,41.8c.46,0,.92-.04,1.37-.13h0c2.85-.54,5.13-2.82,5.67-5.67.45-2.37-.29-4.8-1.98-6.49-1.69-1.69-4.11-2.43-6.49-1.98-2.85.54-5.13,2.82-5.67,5.67-.45,2.37.29,4.8,1.98,6.49,1.36,1.36,3.2,2.11,5.11,2.11ZM54.86,33.77c.31-1.61,1.64-2.95,3.26-3.26.28-.05.56-.08.83-.08,1.11,0,2.15.42,2.94,1.22.99.99,1.41,2.37,1.14,3.78-.31,1.61-1.64,2.95-3.26,3.26-1.41.27-2.78-.15-3.78-1.14-.99-.99-1.41-2.37-1.14-3.78Z"/>
      <path class="cls-2" d="M57.67,61.09c.27.47.77.75,1.31.75h0c.54,0,1.04-.29,1.31-.75l11.22-19.25c3.45-5.91,2.57-13.3-2.12-17.97-2.78-2.77-6.49-4.29-10.44-4.29-3.64,0-7.12,1.32-9.82,3.71-5.19,4.6-6.33,12.42-2.71,18.6l11.25,19.21ZM51.14,25.55c2.17-1.93,4.87-2.95,7.81-2.95,3.14,0,6.09,1.21,8.3,3.41,3.72,3.69,4.39,9.57,1.64,14.29l-9.91,17.01-9.94-16.97c-2.89-4.93-2-11.15,2.11-14.8Z"/>
    </g>
    <g>
      <path class="cls-2" d="M33.31,84.68h2.74v13.15h6.42v2.31h-9.16v-15.46Z"/>
      <path class="cls-2" d="M43.87,94.35c0-3.87,2.63-6.1,5.52-6.1s5.52,2.23,5.52,6.1-2.63,6.08-5.52,6.08-5.52-2.23-5.52-6.08ZM52.12,94.35c0-2.33-1.02-3.88-2.72-3.88s-2.72,1.55-2.72,3.88,1.02,3.86,2.72,3.86,2.72-1.53,2.72-3.86Z"/>
      <path class="cls-2" d="M56.86,94.35c0-3.87,2.73-6.1,5.82-6.1,1.48,0,2.55.57,3.4,1.3l-1.32,1.77c-.61-.54-1.2-.85-1.93-.85-1.87,0-3.17,1.55-3.17,3.88s1.28,3.86,3.08,3.86c.91,0,1.74-.44,2.4-1l1.11,1.8c-1.09.96-2.47,1.43-3.79,1.43-3.17,0-5.6-2.23-5.6-6.08Z"/>
      <path class="cls-2" d="M67.68,97.02c0-2.49,2.06-3.78,6.83-4.29-.04-1.25-.54-2.29-2.11-2.29-1.15,0-2.24.52-3.26,1.14l-1-1.82c1.28-.8,2.92-1.52,4.77-1.52,2.9,0,4.33,1.79,4.33,5.02v6.87h-2.23l-.21-1.29h-.08c-1.04.89-2.23,1.57-3.6,1.57-2.03,0-3.43-1.38-3.43-3.4ZM74.51,97.03v-2.61c-3.15.4-4.2,1.22-4.2,2.39,0,1.03.7,1.48,1.67,1.48s1.66-.46,2.53-1.26Z"/>
      <path class="cls-2" d="M80.51,97.16v-13.71h2.72v13.85c0,.67.3.91.59.91.12,0,.22,0,.43-.05l.34,2.03c-.33.13-.78.24-1.44.24-1.93,0-2.64-1.25-2.64-3.27Z"/>
    </g>
  </g>
</svg>