<?xml version="1.0" encoding="UTF-8"?>
<svg id="Layer_1" data-name="Layer 1" xmlns="http://www.w3.org/2000/svg" viewBox="0 0 120 120">
  <defs>
    <style>
      .cls-1 {
        fill: #f5ecfd;
      }

      .cls-1, .cls-2 {
        stroke-width: 0px;
      }

      .cls-2 {
        fill: #8c31ed;
      }
    </style>
  </defs>
  <circle class="cls-1" cx="60" cy="60" r="57.51"/>
  <g>
    <g>
      <path class="cls-2" d="M83.71,65.18h-8.09c-.85,0-1.54-.69-1.54-1.54s.69-1.54,1.54-1.54h8.09c6.11,0,11.08-4.97,11.08-11.08,0-5.52-4.12-10.24-9.58-10.97l-1.31-.18-.03-1.32c-.22-9.4-8.06-17.05-17.47-17.05-6.66,0-12.65,3.7-15.63,9.67l-.54,1.08-1.18-.26c-.93-.21-1.88-.31-2.82-.31-6.82,0-12.5,5.33-12.92,12.13l-.07,1.19-1.16.23c-3.97.79-6.85,4.3-6.85,8.35,0,4.7,3.82,8.52,8.52,8.52h10.23c.85,0,1.54.69,1.54,1.54s-.69,1.54-1.54,1.54h-10.23c-6.4,0-11.6-5.21-11.6-11.6,0-5.13,3.39-9.62,8.21-11.1,1.05-7.88,7.82-13.89,15.89-13.89.78,0,1.56.06,2.33.17,3.66-6.41,10.4-10.34,17.84-10.34,10.64,0,19.58,8.32,20.48,18.8,6.35,1.46,10.99,7.18,10.99,13.8,0,7.81-6.35,14.16-14.16,14.16Z"/>
      <path class="cls-2" d="M71.71,62.84l-2.07-.4c-.27-.05-.49-.25-.58-.52-.27-.79-.65-1.53-1.1-2.21-.16-.25-.18-.56-.04-.82l.98-1.75c.18-.32.11-.73-.18-.97l-2.36-1.97c-.29-.24-.71-.24-.99,0l-1.72,1.46c-.21.18-.5.23-.76.14-.72-.24-1.47-.4-2.25-.47-.29-.03-.55-.2-.66-.48l-.82-2.01c-.14-.34-.51-.54-.87-.46l-3.02.62c-.37.08-.63.41-.62.78l.08,2.42c0,.27-.13.53-.36.68-.6.39-1.15.84-1.65,1.35-.2.21-.5.29-.78.21l-2.22-.65c-.36-.1-.74.06-.91.39l-1.4,2.74c-.17.33-.07.74.23.97l1.98,1.48c.22.17.34.44.3.72-.04.35-.07.7-.07,1.06s.02.69.06,1.03c.03.29-.09.57-.32.73l-1.9,1.33c-.3.21-.41.61-.26.95l1.27,2.8c.16.34.53.52.9.43l2.31-.61c.27-.07.56.02.76.22.52.53,1.09,1,1.71,1.4.24.15.38.42.37.7l-.14,2.2c-.02.37.22.7.58.8l2.99.75c.36.09.74-.09.89-.44l.9-2.03c.12-.26.37-.43.65-.46.81-.07,1.6-.24,2.34-.5.27-.09.57-.04.78.15l1.51,1.36c.28.25.69.27.98.04l2.45-1.87c.3-.23.39-.64.22-.97l-.97-1.86c-.13-.25-.11-.55.05-.79.46-.7.83-1.45,1.1-2.26.09-.28.32-.48.61-.53l1.92-.32c.37-.06.64-.37.65-.74l.07-3.08c0-.38-.26-.7-.62-.77ZM59.73,71.39c-3.44,0-6.23-2.79-6.23-6.23s2.79-6.23,6.23-6.23,6.23,2.79,6.23,6.23-2.79,6.23-6.23,6.23Z"/>
      <path class="cls-2" d="M82.06,45.65l-1.4-.27c-.19-.04-.33-.17-.39-.35-.19-.53-.44-1.03-.74-1.49-.11-.17-.12-.38-.03-.55l.66-1.18c.12-.22.07-.49-.12-.65l-1.6-1.33c-.19-.16-.48-.16-.67,0l-1.16.99c-.14.12-.34.15-.51.09-.48-.16-.99-.27-1.52-.32-.2-.02-.37-.14-.45-.32l-.55-1.36c-.09-.23-.34-.36-.59-.31l-2.04.42c-.25.05-.42.27-.42.53l.05,1.63c0,.19-.09.36-.25.46-.41.26-.78.57-1.12.91-.14.14-.34.2-.53.14l-1.5-.44c-.24-.07-.5.04-.61.26l-.94,1.85c-.12.23-.05.5.15.65l1.34,1c.15.11.23.3.2.49-.03.24-.04.47-.04.72s.02.47.04.69c.02.19-.06.38-.22.5l-1.29.9c-.21.14-.28.41-.18.64l.86,1.89c.1.23.36.35.61.29l1.56-.41c.18-.05.38.01.51.15.35.36.74.67,1.16.95.16.1.26.28.25.47l-.09,1.49c-.02.25.15.48.39.54l2.02.51c.25.06.5-.06.6-.29l.61-1.37c.08-.18.25-.29.44-.31.55-.05,1.08-.16,1.58-.34.18-.06.39-.03.53.1l1.02.92c.19.17.47.18.67.03l1.65-1.26c.2-.15.26-.43.15-.66l-.65-1.25c-.09-.17-.07-.37.03-.53.31-.47.56-.98.74-1.53.06-.19.22-.33.41-.36l1.3-.21c.25-.04.43-.25.44-.5l.05-2.08c0-.25-.17-.47-.42-.52ZM73.97,51.42c-2.33,0-4.21-1.89-4.21-4.21s1.89-4.21,4.21-4.21,4.21,1.89,4.21,4.21-1.89,4.21-4.21,4.21Z"/>
    </g>
    <g>
      <path class="cls-2" d="M34.74,96.71l1.67-1.96c1.16,1.1,2.71,1.84,4.21,1.84,1.82,0,2.81-.82,2.81-2.08,0-1.33-1.04-1.75-2.51-2.37l-2.21-.96c-1.59-.66-3.26-1.92-3.26-4.28,0-2.57,2.27-4.55,5.42-4.55,1.89,0,3.71.78,4.97,2.06l-1.47,1.82c-1.03-.87-2.12-1.39-3.5-1.39-1.53,0-2.53.72-2.53,1.89,0,1.27,1.23,1.74,2.57,2.28l2.18.91c1.92.8,3.26,2.01,3.26,4.35,0,2.62-2.17,4.8-5.79,4.8-2.18,0-4.28-.86-5.81-2.36Z"/>
      <path class="cls-2" d="M48.4,95.52c0-2.6,2.15-3.95,7.13-4.48-.04-1.3-.56-2.39-2.2-2.39-1.2,0-2.34.54-3.4,1.19l-1.05-1.9c1.33-.84,3.05-1.59,4.97-1.59,3.03,0,4.52,1.87,4.52,5.24v7.18h-2.33l-.22-1.34h-.08c-1.09.93-2.33,1.64-3.76,1.64-2.12,0-3.58-1.44-3.58-3.55ZM55.52,95.53v-2.72c-3.29.41-4.38,1.27-4.38,2.5,0,1.07.73,1.54,1.75,1.54s1.74-.48,2.63-1.31Z"/>
      <path class="cls-2" d="M61.13,95.52c0-2.6,2.15-3.95,7.13-4.48-.04-1.3-.56-2.39-2.2-2.39-1.2,0-2.34.54-3.4,1.19l-1.05-1.9c1.33-.84,3.05-1.59,4.97-1.59,3.03,0,4.52,1.87,4.52,5.24v7.18h-2.33l-.22-1.34h-.08c-1.09.93-2.33,1.64-3.76,1.64-2.12,0-3.58-1.44-3.58-3.55ZM68.25,95.53v-2.72c-3.29.41-4.38,1.27-4.38,2.5,0,1.07.73,1.54,1.75,1.54s1.74-.48,2.63-1.31Z"/>
      <path class="cls-2" d="M73.65,96.71l1.67-1.96c1.15,1.1,2.7,1.84,4.2,1.84,1.82,0,2.81-.82,2.81-2.08,0-1.33-1.04-1.75-2.51-2.37l-2.21-.96c-1.59-.66-3.26-1.92-3.26-4.28,0-2.57,2.27-4.55,5.42-4.55,1.88,0,3.71.78,4.97,2.06l-1.47,1.82c-1.03-.87-2.12-1.39-3.5-1.39-1.53,0-2.53.72-2.53,1.89,0,1.27,1.23,1.74,2.57,2.28l2.18.91c1.92.8,3.26,2.01,3.26,4.35,0,2.62-2.17,4.8-5.79,4.8-2.18,0-4.28-.86-5.81-2.36Z"/>
    </g>
  </g>
</svg>