<svg xmlns="http://www.w3.org/2000/svg" xmlns:xlink="http://www.w3.org/1999/xlink" viewBox="0 0 138.03 161.79"><defs><style>.cls-1{fill:none;}.cls-2{clip-path:url(#clip-path);}.cls-3{fill:#15a9a9;}.cls-4{fill:#15a8a9;}.cls-5{fill:#15a8a8;}.cls-6{fill:#15a7a8;}.cls-7{fill:#15a6a8;}.cls-8{fill:#16a5a7;}.cls-9{fill:#16a4a7;}.cls-10{fill:#16a3a7;}.cls-11{fill:#16a3a6;}.cls-12{fill:#16a2a6;}.cls-13{fill:#16a1a5;}.cls-14{fill:#16a0a5;}.cls-15{fill:#169fa5;}.cls-16{fill:#179ea4;}.cls-17{fill:#179da3;}.cls-18{fill:#179ca3;}.cls-19{fill:#179ba3;}.cls-20{fill:#179aa2;}.cls-21{fill:#1799a2;}.cls-22{fill:#1798a1;}.cls-23{fill:#1897a1;}.cls-24{fill:#1896a1;}.cls-25{fill:#1896a0;}.cls-26{fill:#1895a0;}.cls-27{fill:#18949f;}.cls-28{fill:#18939f;}.cls-29{fill:#18929f;}.cls-30{fill:#19919e;}.cls-31{fill:#19909e;}.cls-32{fill:#198f9d;}.cls-33{fill:#198e9d;}.cls-34{fill:#198d9c;}.cls-35{fill:#198c9c;}.cls-36{fill:#198b9c;}.cls-37{fill:#1a8a9b;}.cls-38{fill:#1a899b;}.cls-39{fill:#1a889a;}.cls-40{fill:#1a879a;}.cls-41{fill:#1a8699;}.cls-42{fill:#1a8599;}.cls-43{fill:#1a8498;}.cls-44{fill:#1b8398;}.cls-45{fill:#1b8297;}.cls-46{fill:#1b8197;}.cls-47{fill:#1b8097;}.cls-48{fill:#1b7f96;}.cls-49{fill:#1b7e96;}.cls-50{fill:#1b7d95;}.cls-51{fill:#1c7c95;}.cls-52{fill:#1c7b94;}.cls-53{fill:#1c7a94;}.cls-54{fill:#1c7993;}.cls-55{fill:#1c7893;}.cls-56{fill:#1c7792;}.cls-57{fill:#1d7692;}.cls-58{fill:#1d7591;}.cls-59{fill:#1d7491;}.cls-60{fill:#1d7290;}.cls-61{fill:#1d7190;}.cls-62{fill:#1d7090;}.cls-63{fill:#1d6f8f;}.cls-64{fill:#1e6e8f;}.cls-65{fill:#1e6d8e;}.cls-66{fill:#1e6c8e;}.cls-67{fill:#1e6b8d;}.cls-68{fill:#1e6a8d;}.cls-69{fill:#1e698c;}.cls-70{fill:#1f688c;}.cls-71{fill:#1f678b;}.cls-72{fill:#1f668b;}.cls-73{fill:#1f648a;}.cls-74{fill:#1f638a;}.cls-75{fill:#1f6289;}.cls-76{fill:#206189;}.cls-77{fill:#206088;}.cls-78{fill:#205f88;}.cls-79{fill:#205e87;}.cls-80{fill:#205d87;}.cls-81{fill:#205c86;}.cls-82{fill:#215b86;}.cls-83{fill:#215985;}.cls-84{fill:#215885;}.cls-85{fill:#215784;}.cls-86{fill:#215684;}.cls-87{fill:#215583;}.cls-88{fill:#215483;}.cls-89{fill:#225382;}.cls-90{fill:#225282;}.cls-91{fill:#225181;}.cls-92{fill:#224f81;}.cls-93{fill:#224e80;}.cls-94{fill:#224d80;}.cls-95{fill:#234c7f;}.cls-96{fill:#234b7f;}.cls-97{fill:#234a7e;}.cls-98{fill:#23497e;}.cls-99{fill:#23477d;}.cls-100{fill:#23467d;}.cls-101{fill:#24457c;}.cls-102{fill:#24447c;}.cls-103{fill:#24437b;}.cls-104{fill:#24427b;}.cls-105{fill:#24417a;}.cls-106{fill:#243f7a;}.cls-107{fill:#253e79;}.cls-108{fill:#253d79;}.cls-109{fill:#253c78;}</style><clipPath id="clip-path"><path class="cls-1" d="M110.82,108a3.48,3.48,0,0,0-4.83-.09,36.94,36.94,0,1,1,0-54.1,3.49,3.49,0,0,0,4.83-.09L137,27.58a3.48,3.48,0,0,0,0-5A80.88,80.88,0,0,0,2.17,62.2,3.48,3.48,0,0,0,4.76,66.4a3.47,3.47,0,0,0,1.19,0c.1,0,.18.06.28.06H23.79A3.46,3.46,0,0,0,27,64.22a3.43,3.43,0,0,0,.44-.85A55.72,55.72,0,0,1,116.4,38.32l-8.23,8.23a43.82,43.82,0,0,0-71,30.87H3.48a3.48,3.48,0,0,0,0,7H37.17a43.82,43.82,0,0,0,71,30.87l8.22,8.23a55.71,55.71,0,0,1-88.93-25c0-.1-.11-.16-.15-.26A3.44,3.44,0,0,0,24,95.4H5.59a3.44,3.44,0,0,0-3.36,2.88c0,.09,0,.16-.05.25a1.12,1.12,0,0,0,0,.87,3.3,3.3,0,0,0,0,.41A80.89,80.89,0,0,0,137,139.2a3.48,3.48,0,0,0,0-5ZM80.45,18.14a62.61,62.61,0,0,0-59,41.38H10.16A73.87,73.87,0,0,1,129.5,25.22l-8.15,8.16A62.53,62.53,0,0,0,80.45,18.14Zm.45,136.68a73.61,73.61,0,0,1-70.7-52.45H21.52a62.63,62.63,0,0,0,99.82,26l8.16,8.16A73.52,73.52,0,0,1,80.9,154.83Z"/></clipPath></defs><title>Symbol-C-web</title><g id="Layer_2" data-name="Layer 2"><g id="Layer_1-2" data-name="Layer 1"><g class="cls-2"><polygon class="cls-3" points="129.5 112.53 107.97 102.37 129.5 102.37 129.5 112.53"/><polygon class="cls-3" points="129.5 113.14 106.67 102.37 107.97 102.37 129.5 112.53 129.5 113.14"/><polygon class="cls-4" points="129.5 113.75 105.37 102.37 106.67 102.37 129.5 113.14 129.5 113.75"/><polygon class="cls-5" points="129.5 114.37 104.07 102.37 105.37 102.37 129.5 113.75 129.5 114.37"/><polygon class="cls-6" points="129.5 114.98 102.77 102.37 104.07 102.37 129.5 114.37 129.5 114.98"/><polygon class="cls-7" points="129.5 115.59 101.47 102.37 102.77 102.37 129.5 114.98 129.5 115.59"/><polygon class="cls-7" points="129.5 116.21 100.17 102.37 101.47 102.37 129.5 115.59 129.5 116.21"/><polygon class="cls-8" points="129.5 116.82 98.86 102.37 100.17 102.37 129.5 116.21 129.5 116.82"/><polygon class="cls-9" points="129.5 117.43 97.56 102.37 98.86 102.37 129.5 116.82 129.5 117.43"/><polygon class="cls-10" points="129.5 118.05 96.26 102.37 97.56 102.37 129.5 117.43 129.5 118.05"/><polygon class="cls-11" points="129.5 118.66 94.96 102.37 96.26 102.37 129.5 118.05 129.5 118.66"/><polygon class="cls-12" points="129.5 119.28 93.66 102.37 94.96 102.37 129.5 118.66 129.5 119.28"/><polygon class="cls-13" points="129.5 119.89 92.36 102.37 93.66 102.37 129.5 119.28 129.5 119.89"/><polygon class="cls-14" points="129.5 120.5 91.06 102.37 92.36 102.37 129.5 119.89 129.5 120.5"/><polygon class="cls-15" points="129.5 121.11 89.76 102.37 91.06 102.37 129.5 120.5 129.5 121.11"/><polygon class="cls-16" points="129.5 121.73 88.45 102.37 89.76 102.37 129.5 121.11 129.5 121.73"/><polygon class="cls-16" points="129.5 122.34 87.15 102.37 88.45 102.37 129.5 121.73 129.5 122.34"/><polygon class="cls-17" points="129.5 122.96 85.85 102.37 87.15 102.37 129.5 122.34 129.5 122.96"/><polygon class="cls-18" points="129.5 123.57 84.55 102.37 85.85 102.37 129.5 122.96 129.5 123.57"/><polygon class="cls-19" points="129.5 124.18 83.25 102.37 84.55 102.37 129.5 123.57 129.5 124.18"/><polygon class="cls-20" points="129.5 124.8 81.95 102.37 83.25 102.37 129.5 124.18 129.5 124.8"/><polygon class="cls-21" points="129.5 125.41 80.65 102.37 81.95 102.37 129.5 124.8 129.5 125.41"/><polygon class="cls-22" points="129.5 126.02 79.35 102.37 80.65 102.37 129.5 125.41 129.5 126.02"/><polygon class="cls-23" points="129.5 126.64 78.05 102.37 79.35 102.37 129.5 126.02 129.5 126.64"/><polygon class="cls-24" points="129.5 127.25 76.74 102.37 78.05 102.37 129.5 126.64 129.5 127.25"/><polygon class="cls-25" points="129.5 127.86 75.44 102.37 76.74 102.37 129.5 127.25 129.5 127.86"/><polygon class="cls-26" points="129.5 128.48 74.14 102.37 75.44 102.37 129.5 127.86 129.5 128.48"/><polygon class="cls-27" points="129.5 129.09 72.84 102.37 74.14 102.37 129.5 128.48 129.5 129.09"/><polygon class="cls-28" points="129.5 129.71 71.54 102.37 72.84 102.37 129.5 129.09 129.5 129.71"/><polygon class="cls-29" points="129.5 130.32 70.24 102.37 71.54 102.37 129.5 129.71 129.5 130.32"/><polygon class="cls-30" points="129.5 130.93 68.94 102.37 70.24 102.37 129.5 130.32 129.5 130.93"/><polygon class="cls-31" points="129.5 131.55 67.64 102.37 68.94 102.37 129.5 130.93 129.5 131.55"/><polygon class="cls-32" points="129.5 132.16 66.33 102.37 67.64 102.37 129.5 131.55 129.5 132.16"/><polygon class="cls-33" points="129.5 132.77 65.03 102.37 66.33 102.37 129.5 132.16 129.5 132.77"/><polygon class="cls-34" points="129.5 133.39 63.73 102.37 65.03 102.37 129.5 132.77 129.5 133.39"/><polygon class="cls-35" points="129.5 134 62.43 102.37 63.73 102.37 129.5 133.39 129.5 134"/><polygon class="cls-36" points="129.5 134.61 61.13 102.37 62.43 102.37 129.5 134 129.5 134.61"/><polygon class="cls-37" points="129.5 135.23 59.83 102.37 61.13 102.37 129.5 134.61 129.5 135.23"/><polygon class="cls-38" points="129.5 135.84 58.53 102.37 59.83 102.37 129.5 135.23 129.5 135.84"/><polygon class="cls-39" points="129.5 136.46 57.23 102.37 58.53 102.37 129.5 135.84 129.5 136.46"/><polygon class="cls-40" points="129.5 137.07 55.92 102.37 57.23 102.37 129.5 136.46 129.5 137.07"/><polygon class="cls-41" points="129.5 137.68 54.62 102.37 55.92 102.37 129.5 137.07 129.5 137.68"/><polygon class="cls-42" points="129.5 138.3 53.32 102.37 54.62 102.37 129.5 137.68 129.5 138.3"/><polygon class="cls-43" points="129.5 138.91 52.02 102.37 53.32 102.37 129.5 138.3 129.5 138.91"/><polygon class="cls-44" points="129.5 139.52 50.72 102.37 52.02 102.37 129.5 138.91 129.5 139.52"/><polygon class="cls-45" points="129.5 140.14 49.42 102.37 50.72 102.37 129.5 139.52 129.5 140.14"/><polygon class="cls-46" points="129.5 140.75 48.12 102.37 49.42 102.37 129.5 140.14 129.5 140.75"/><polygon class="cls-47" points="129.5 141.26 129.46 141.35 46.81 102.37 48.12 102.37 129.5 140.75 129.5 141.26"/><polygon class="cls-48" points="129.46 141.35 129.22 141.85 45.51 102.37 46.81 102.37 129.46 141.35"/><polygon class="cls-49" points="129.22 141.85 128.99 142.35 44.21 102.37 45.51 102.37 129.22 141.85"/><polygon class="cls-50" points="128.99 142.35 128.75 142.85 42.91 102.37 44.21 102.37 128.99 142.35"/><polygon class="cls-51" points="128.75 142.85 128.51 143.35 41.61 102.37 42.91 102.37 128.75 142.85"/><polygon class="cls-52" points="128.51 143.35 128.28 143.86 40.31 102.37 41.61 102.37 128.51 143.35"/><polygon class="cls-53" points="128.28 143.86 128.04 144.36 39.01 102.37 40.31 102.37 128.28 143.86"/><polygon class="cls-54" points="128.04 144.36 127.81 144.86 37.71 102.37 39.01 102.37 128.04 144.36"/><polygon class="cls-55" points="127.81 144.86 127.57 145.36 36.41 102.37 37.71 102.37 127.81 144.86"/><polygon class="cls-56" points="127.57 145.36 127.33 145.86 35.1 102.37 36.41 102.37 127.57 145.36"/><polygon class="cls-57" points="127.33 145.86 127.09 146.37 33.8 102.37 35.1 102.37 127.33 145.86"/><polygon class="cls-58" points="127.09 146.37 126.86 146.87 32.5 102.37 33.8 102.37 127.09 146.37"/><polygon class="cls-59" points="126.86 146.87 126.62 147.37 31.2 102.37 32.5 102.37 126.86 146.87"/><polygon class="cls-60" points="126.62 147.37 126.39 147.87 29.9 102.37 31.2 102.37 126.62 147.37"/><polygon class="cls-61" points="126.39 147.87 126.15 148.37 28.6 102.37 29.9 102.37 126.39 147.87"/><polygon class="cls-62" points="126.15 148.37 125.91 148.88 27.3 102.37 28.6 102.37 126.15 148.37"/><polygon class="cls-63" points="125.91 148.88 125.67 149.38 26 102.37 27.3 102.37 125.91 148.88"/><polygon class="cls-64" points="125.67 149.38 125.44 149.88 24.69 102.37 26 102.37 125.67 149.38"/><polygon class="cls-65" points="125.44 149.88 125.2 150.38 23.39 102.37 24.69 102.37 125.44 149.88"/><polygon class="cls-66" points="125.2 150.38 124.96 150.88 22.09 102.37 23.39 102.37 125.2 150.38"/><polygon class="cls-67" points="124.96 150.88 124.73 151.38 20.79 102.37 22.09 102.37 124.96 150.88"/><polygon class="cls-68" points="124.73 151.38 124.49 151.89 19.49 102.37 20.79 102.37 124.73 151.38"/><polygon class="cls-69" points="124.49 151.89 124.25 152.39 18.19 102.37 19.49 102.37 124.49 151.89"/><polygon class="cls-70" points="124.25 152.39 124.02 152.89 16.89 102.37 18.19 102.37 124.25 152.39"/><polygon class="cls-71" points="124.02 152.89 123.78 153.39 15.59 102.37 16.89 102.37 124.02 152.89"/><polygon class="cls-72" points="123.78 153.39 123.54 153.9 14.28 102.37 15.59 102.37 123.78 153.39"/><polygon class="cls-73" points="123.54 153.9 123.31 154.4 12.98 102.37 14.28 102.37 123.54 153.9"/><polygon class="cls-74" points="123.31 154.4 123.11 154.82 122.91 154.82 11.68 102.37 12.98 102.37 123.31 154.4"/><polygon class="cls-75" points="121.61 154.82 10.38 102.37 11.68 102.37 122.91 154.82 121.61 154.82"/><polygon class="cls-76" points="120.31 154.82 10.2 102.9 10.2 102.37 10.38 102.37 121.61 154.82 120.31 154.82"/><polygon class="cls-77" points="119.01 154.82 10.2 103.51 10.2 102.9 120.31 154.82 119.01 154.82"/><polygon class="cls-78" points="117.71 154.82 10.2 104.13 10.2 103.51 119.01 154.82 117.71 154.82"/><polygon class="cls-79" points="116.41 154.82 10.2 104.74 10.2 104.13 117.71 154.82 116.41 154.82"/><polygon class="cls-80" points="115.11 154.82 10.2 105.36 10.2 104.74 116.41 154.82 115.11 154.82"/><polygon class="cls-81" points="113.81 154.82 10.2 105.97 10.2 105.36 115.11 154.82 113.81 154.82"/><polygon class="cls-82" points="112.5 154.82 10.2 106.58 10.2 105.97 113.81 154.82 112.5 154.82"/><polygon class="cls-83" points="111.2 154.82 10.2 107.2 10.2 106.58 112.5 154.82 111.2 154.82"/><polygon class="cls-84" points="109.9 154.82 10.2 107.81 10.2 107.2 111.2 154.82 109.9 154.82"/><polygon class="cls-85" points="108.6 154.82 10.2 108.42 10.2 107.81 109.9 154.82 108.6 154.82"/><polygon class="cls-86" points="107.3 154.82 10.2 109.04 10.2 108.42 108.6 154.82 107.3 154.82"/><polygon class="cls-87" points="106 154.82 10.2 109.65 10.2 109.04 107.3 154.82 106 154.82"/><polygon class="cls-88" points="104.7 154.82 10.2 110.26 10.2 109.65 106 154.82 104.7 154.82"/><polygon class="cls-89" points="103.39 154.82 10.2 110.88 10.2 110.26 104.7 154.82 103.39 154.82"/><polygon class="cls-90" points="102.09 154.82 10.2 111.49 10.2 110.88 103.39 154.82 102.09 154.82"/><polygon class="cls-91" points="100.79 154.82 10.2 112.1 10.2 111.49 102.09 154.82 100.79 154.82"/><polygon class="cls-92" points="99.49 154.82 10.2 112.72 10.2 112.1 100.79 154.82 99.49 154.82"/><polygon class="cls-93" points="98.19 154.82 10.2 113.33 10.2 112.72 99.49 154.82 98.19 154.82"/><polygon class="cls-94" points="96.89 154.82 10.2 113.94 10.2 113.33 98.19 154.82 96.89 154.82"/><polygon class="cls-95" points="95.59 154.82 10.2 114.56 10.2 113.94 96.89 154.82 95.59 154.82"/><polygon class="cls-96" points="94.29 154.82 10.2 115.17 10.2 114.56 95.59 154.82 94.29 154.82"/><polygon class="cls-97" points="92.98 154.82 10.2 115.79 10.2 115.17 94.29 154.82 92.98 154.82"/><polygon class="cls-98" points="91.68 154.82 10.2 116.4 10.2 115.79 92.98 154.82 91.68 154.82"/><polygon class="cls-99" points="90.38 154.82 10.2 117.01 10.2 116.4 91.68 154.82 90.38 154.82"/><polygon class="cls-100" points="89.08 154.82 10.2 117.63 10.2 117.01 90.38 154.82 89.08 154.82"/><polygon class="cls-101" points="87.78 154.82 10.2 118.24 10.2 117.63 89.08 154.82 87.78 154.82"/><polygon class="cls-102" points="86.48 154.82 10.2 118.85 10.2 118.24 87.78 154.82 86.48 154.82"/><polygon class="cls-103" points="85.18 154.82 10.2 119.47 10.2 118.85 86.48 154.82 85.18 154.82"/><polygon class="cls-104" points="83.88 154.82 10.2 120.08 10.2 119.47 85.18 154.82 83.88 154.82"/><polygon class="cls-105" points="82.58 154.82 10.2 120.69 10.2 120.08 83.88 154.82 82.58 154.82"/><polygon class="cls-106" points="81.27 154.82 10.2 121.31 10.2 120.69 82.58 154.82 81.27 154.82"/><polygon class="cls-107" points="79.97 154.82 10.2 121.92 10.2 121.31 81.27 154.82 79.97 154.82"/><polygon class="cls-108" points="78.67 154.82 10.2 122.53 10.2 121.92 79.97 154.82 78.67 154.82"/><polygon class="cls-109" points="77.37 154.82 10.2 123.15 10.2 122.53 78.67 154.82 77.37 154.82"/><polygon class="cls-109" points="10.2 123.15 77.37 154.82 10.2 154.82 10.2 123.15"/><polygon class="cls-3" points="129.5 29.91 115.54 59.52 17.09 59.52 10.16 56.25 10.16 43.52 27.4 6.97 129.5 6.97 129.5 29.91"/><polygon class="cls-3" points="15.79 59.52 10.16 56.87 10.16 56.25 17.09 59.52 15.79 59.52"/><polygon class="cls-4" points="14.49 59.52 10.16 57.48 10.16 56.87 15.79 59.52 14.49 59.52"/><polygon class="cls-5" points="13.19 59.52 10.16 58.09 10.16 57.48 14.49 59.52 13.19 59.52"/><polygon class="cls-6" points="11.89 59.52 10.16 58.71 10.16 58.09 13.19 59.52 11.89 59.52"/><polygon class="cls-7" points="10.59 59.52 10.16 59.32 10.16 58.71 11.89 59.52 10.59 59.52"/><polygon class="cls-7" points="10.16 59.32 10.59 59.52 10.16 59.52 10.16 59.32"/><polygon class="cls-3" points="138.03 116.55 0 51.46 0 43.88 20.69 0 138.03 0 138.03 116.55"/><polygon class="cls-3" points="138.03 117.16 0 52.07 0 51.46 138.03 116.55 138.03 117.16"/><polygon class="cls-4" points="138.03 117.78 0 52.69 0 52.07 138.03 117.16 138.03 117.78"/><polygon class="cls-5" points="138.03 118.39 0 53.3 0 52.69 138.03 117.78 138.03 118.39"/><polygon class="cls-6" points="138.03 119 0 53.91 0 53.3 138.03 118.39 138.03 119"/><polygon class="cls-7" points="138.03 119.62 0 54.53 0 53.91 138.03 119 138.03 119.62"/><polygon class="cls-7" points="138.03 120.23 0 55.14 0 54.53 138.03 119.62 138.03 120.23"/><polygon class="cls-8" points="138.03 120.84 0 55.76 0 55.14 138.03 120.23 138.03 120.84"/><polygon class="cls-9" points="138.03 121.46 0 56.37 0 55.76 138.03 120.84 138.03 121.46"/><polygon class="cls-10" points="138.03 122.07 0 56.98 0 56.37 138.03 121.46 138.03 122.07"/><polygon class="cls-11" points="138.03 122.68 0 57.6 0 56.98 138.03 122.07 138.03 122.68"/><polygon class="cls-12" points="138.03 123.3 0 58.21 0 57.6 138.03 122.68 138.03 123.3"/><polygon class="cls-13" points="138.03 123.91 0 58.82 0 58.21 138.03 123.3 138.03 123.91"/><polygon class="cls-14" points="138.03 124.53 0 59.44 0 58.82 138.03 123.91 138.03 124.53"/><polygon class="cls-15" points="138.03 125.14 0 60.05 0 59.44 138.03 124.53 138.03 125.14"/><polygon class="cls-16" points="138.03 125.75 0 60.66 0 60.05 138.03 125.14 138.03 125.75"/><polygon class="cls-16" points="138.03 126.36 0 61.28 0 60.66 138.03 125.75 138.03 126.36"/><polygon class="cls-17" points="138.03 126.98 0 61.89 0 61.28 138.03 126.36 138.03 126.98"/><polygon class="cls-18" points="138.03 127.59 0 62.51 0 61.89 138.03 126.98 138.03 127.59"/><polygon class="cls-19" points="138.03 128.21 0 63.12 0 62.51 138.03 127.59 138.03 128.21"/><polygon class="cls-20" points="138.03 128.82 0 63.73 0 63.12 138.03 128.21 138.03 128.82"/><polygon class="cls-21" points="138.03 129.43 0 64.34 0 63.73 138.03 128.82 138.03 129.43"/><polygon class="cls-22" points="138.03 130.05 0 64.96 0 64.34 138.03 129.43 138.03 130.05"/><polygon class="cls-23" points="138.03 130.66 0 65.57 0 64.96 138.03 130.05 138.03 130.66"/><polygon class="cls-24" points="138.03 131.27 0 66.19 0 65.57 138.03 130.66 138.03 131.27"/><polygon class="cls-25" points="138.03 131.89 0 66.8 0 66.19 138.03 131.27 138.03 131.89"/><polygon class="cls-26" points="138.03 132.5 0 67.41 0 66.8 138.03 131.89 138.03 132.5"/><polygon class="cls-27" points="138.03 133.12 0 68.03 0 67.41 138.03 132.5 138.03 133.12"/><polygon class="cls-28" points="138.03 133.73 0 68.64 0 68.03 138.03 133.12 138.03 133.73"/><polygon class="cls-29" points="138.03 134.34 0 69.25 0 68.64 138.03 133.73 138.03 134.34"/><polygon class="cls-30" points="138.03 134.96 0 69.87 0 69.25 138.03 134.34 138.03 134.96"/><polygon class="cls-31" points="138.03 135.57 0 70.48 0 69.87 138.03 134.96 138.03 135.57"/><polygon class="cls-32" points="138.03 136.18 0 71.09 0 70.48 138.03 135.57 138.03 136.18"/><polygon class="cls-33" points="138.03 136.8 0 71.71 0 71.09 138.03 136.18 138.03 136.8"/><polygon class="cls-34" points="138.03 137.41 0 72.32 0 71.71 138.03 136.8 138.03 137.41"/><polygon class="cls-35" points="138.03 138.02 0 72.94 0 72.32 138.03 137.41 138.03 138.02"/><polygon class="cls-36" points="138.03 138.64 0 73.55 0 72.94 138.03 138.02 138.03 138.64"/><polygon class="cls-37" points="138.03 139.25 0 74.16 0 73.55 138.03 138.64 138.03 139.25"/><polygon class="cls-38" points="138.03 139.86 0 74.78 0 74.16 138.03 139.25 138.03 139.86"/><polygon class="cls-39" points="138.03 140.48 0 75.39 0 74.78 138.03 139.86 138.03 140.48"/><polygon class="cls-40" points="138.03 141.09 0 76 0 75.39 138.03 140.48 138.03 141.09"/><polygon class="cls-41" points="138.03 141.71 0 76.62 0 76 138.03 141.09 138.03 141.71"/><polygon class="cls-42" points="138.03 142.32 0 77.23 0 76.62 138.03 141.71 138.03 142.32"/><polygon class="cls-43" points="138.03 142.38 137.82 142.83 0 77.84 0 77.23 138.03 142.32 138.03 142.38"/><polygon class="cls-44" points="137.82 142.83 137.58 143.33 0 78.46 0 77.84 137.82 142.83"/><polygon class="cls-45" points="137.58 143.33 137.34 143.84 0 79.07 0 78.46 137.58 143.33"/><polygon class="cls-46" points="137.34 143.84 137.11 144.34 0 79.69 0 79.07 137.34 143.84"/><polygon class="cls-47" points="137.11 144.34 136.87 144.84 0 80.3 0 79.69 137.11 144.34"/><polygon class="cls-48" points="136.87 144.84 136.63 145.34 0 80.91 0 80.3 136.87 144.84"/><polygon class="cls-49" points="136.63 145.34 136.4 145.84 0 81.53 0 80.91 136.63 145.34"/><polygon class="cls-50" points="136.4 145.84 136.16 146.35 0 82.14 0 81.53 136.4 145.84"/><polygon class="cls-51" points="136.16 146.35 135.93 146.85 0 82.75 0 82.14 136.16 146.35"/><polygon class="cls-52" points="135.93 146.85 135.69 147.35 0 83.37 0 82.75 135.93 146.85"/><polygon class="cls-53" points="135.69 147.35 135.45 147.85 0 83.98 0 83.37 135.69 147.35"/><polygon class="cls-54" points="135.45 147.85 135.22 148.35 0 84.59 0 83.98 135.45 147.85"/><polygon class="cls-55" points="135.22 148.35 134.98 148.86 0 85.21 0 84.59 135.22 148.35"/><polygon class="cls-56" points="134.98 148.86 134.74 149.36 0 85.82 0 85.21 134.98 148.86"/><polygon class="cls-57" points="134.74 149.36 134.5 149.86 0 86.44 0 85.82 134.74 149.36"/><polygon class="cls-58" points="134.5 149.86 134.27 150.36 0 87.05 0 86.44 134.5 149.86"/><polygon class="cls-59" points="134.27 150.36 134.03 150.86 0 87.66 0 87.05 134.27 150.36"/><polygon class="cls-60" points="134.03 150.86 133.79 151.37 0 88.28 0 87.66 134.03 150.86"/><polygon class="cls-61" points="133.79 151.37 133.56 151.87 0 88.89 0 88.28 133.79 151.37"/><polygon class="cls-62" points="133.56 151.87 133.32 152.37 0 89.5 0 88.89 133.56 151.87"/><polygon class="cls-63" points="133.32 152.37 133.09 152.87 0 90.12 0 89.5 133.32 152.37"/><polygon class="cls-64" points="133.09 152.87 132.85 153.37 0 90.73 0 90.12 133.09 152.87"/><polygon class="cls-65" points="132.85 153.37 132.61 153.88 0 91.34 0 90.73 132.85 153.37"/><polygon class="cls-66" points="132.61 153.88 132.37 154.38 0 91.96 0 91.34 132.61 153.88"/><polygon class="cls-67" points="132.37 154.38 132.14 154.88 0 92.57 0 91.96 132.37 154.38"/><polygon class="cls-68" points="132.14 154.88 131.9 155.38 0 93.18 0 92.57 132.14 154.88"/><polygon class="cls-69" points="131.9 155.38 131.66 155.88 0 93.8 0 93.18 131.9 155.38"/><polygon class="cls-70" points="131.66 155.88 131.43 156.38 0 94.41 0 93.8 131.66 155.88"/><polygon class="cls-71" points="131.43 156.38 131.19 156.89 0 95.03 0 94.41 131.43 156.38"/><polygon class="cls-72" points="131.19 156.89 130.95 157.39 0 95.64 0 95.03 131.19 156.89"/><polygon class="cls-73" points="130.95 157.39 130.72 157.89 0 96.25 0 95.64 130.95 157.39"/><polygon class="cls-74" points="130.72 157.89 130.48 158.39 0 96.87 0 96.25 130.72 157.89"/><polygon class="cls-75" points="130.48 158.39 130.24 158.9 0 97.48 0 96.87 130.48 158.39"/><polygon class="cls-76" points="130.24 158.9 130.01 159.4 0 98.09 0 97.48 130.24 158.9"/><polygon class="cls-77" points="130.01 159.4 129.77 159.9 0 98.71 0 98.09 130.01 159.4"/><polygon class="cls-78" points="129.77 159.9 129.53 160.4 0 99.32 0 98.71 129.77 159.9"/><polygon class="cls-79" points="129.53 160.4 129.3 160.9 0 99.93 0 99.32 129.53 160.4"/><polygon class="cls-80" points="129.3 160.9 129.06 161.41 0 100.55 0 99.93 129.3 160.9"/><polygon class="cls-81" points="129.06 161.41 128.88 161.79 128.59 161.79 0 101.16 0 100.55 129.06 161.41"/><polygon class="cls-82" points="127.28 161.79 0 101.77 0 101.16 128.59 161.79 127.28 161.79"/><polygon class="cls-83" points="125.98 161.79 0 102.39 0 101.77 127.28 161.79 125.98 161.79"/><polygon class="cls-84" points="124.68 161.79 0 103 0 102.39 125.98 161.79 124.68 161.79"/><polygon class="cls-85" points="123.38 161.79 0 103.61 0 103 124.68 161.79 123.38 161.79"/><polygon class="cls-86" points="122.08 161.79 0 104.23 0 103.61 123.38 161.79 122.08 161.79"/><polygon class="cls-87" points="120.78 161.79 0 104.84 0 104.23 122.08 161.79 120.78 161.79"/><polygon class="cls-88" points="119.48 161.79 0 105.46 0 104.84 120.78 161.79 119.48 161.79"/><polygon class="cls-89" points="118.18 161.79 0 106.07 0 105.46 119.48 161.79 118.18 161.79"/><polygon class="cls-90" points="116.88 161.79 0 106.68 0 106.07 118.18 161.79 116.88 161.79"/><polygon class="cls-91" points="115.57 161.79 0 107.3 0 106.68 116.88 161.79 115.57 161.79"/><polygon class="cls-92" points="114.27 161.79 0 107.91 0 107.3 115.57 161.79 114.27 161.79"/><polygon class="cls-93" points="112.97 161.79 0 108.52 0 107.91 114.27 161.79 112.97 161.79"/><polygon class="cls-94" points="111.67 161.79 0 109.14 0 108.52 112.97 161.79 111.67 161.79"/><polygon class="cls-95" points="110.37 161.79 0 109.75 0 109.14 111.67 161.79 110.37 161.79"/><polygon class="cls-96" points="109.07 161.79 0 110.36 0 109.75 110.37 161.79 109.07 161.79"/><polygon class="cls-97" points="107.77 161.79 0 110.98 0 110.36 109.07 161.79 107.77 161.79"/><polygon class="cls-98" points="106.47 161.79 0 111.59 0 110.98 107.77 161.79 106.47 161.79"/><polygon class="cls-99" points="105.16 161.79 0 112.2 0 111.59 106.47 161.79 105.16 161.79"/><polygon class="cls-100" points="103.86 161.79 0 112.82 0 112.2 105.16 161.79 103.86 161.79"/><polygon class="cls-101" points="102.56 161.79 0 113.43 0 112.82 103.86 161.79 102.56 161.79"/><polygon class="cls-102" points="101.26 161.79 0 114.05 0 113.43 102.56 161.79 101.26 161.79"/><polygon class="cls-103" points="99.96 161.79 0 114.66 0 114.05 101.26 161.79 99.96 161.79"/><polygon class="cls-104" points="98.66 161.79 0 115.27 0 114.66 99.96 161.79 98.66 161.79"/><polygon class="cls-105" points="97.36 161.79 0 115.89 0 115.27 98.66 161.79 97.36 161.79"/><polygon class="cls-106" points="96.06 161.79 0 116.5 0 115.89 97.36 161.79 96.06 161.79"/><polygon class="cls-107" points="94.75 161.79 0 117.11 0 116.5 96.06 161.79 94.75 161.79"/><polygon class="cls-108" points="93.45 161.79 0 117.73 0 117.11 94.75 161.79 93.45 161.79"/><polygon class="cls-109" points="92.15 161.79 0 118.34 0 117.73 93.45 161.79 92.15 161.79"/><polygon class="cls-109" points="0 118.34 92.15 161.79 0 161.79 0 118.34"/></g></g></g></svg>