<svg xmlns="http://www.w3.org/2000/svg" viewBox="0 0 138.02 161.79"><defs><style>.cls-1{fill:#fff;}</style></defs><title>Symbol-C-white</title><g id="Layer_2" data-name="Layer 2"><g id="Layer_1-2" data-name="Layer 1"><path class="cls-1" d="M110.82,108a3.48,3.48,0,0,0-4.83-.09,36.94,36.94,0,1,1,0-54.1,3.49,3.49,0,0,0,4.83-.09L137,27.58a3.48,3.48,0,0,0,0-5A80.88,80.88,0,0,0,2.17,62.2,3.48,3.48,0,0,0,4.76,66.4a3.47,3.47,0,0,0,1.19,0c.1,0,.18.06.28.06H23.79A3.46,3.46,0,0,0,27,64.22a3.43,3.43,0,0,0,.44-.85A55.72,55.72,0,0,1,116.4,38.32l-8.23,8.23a43.82,43.82,0,0,0-71,30.87H3.48a3.48,3.48,0,0,0,0,7H37.17a43.82,43.82,0,0,0,71,30.87l8.22,8.23a55.71,55.71,0,0,1-88.93-25c0-.1-.11-.16-.15-.26A3.44,3.44,0,0,0,24,95.4H5.59a3.44,3.44,0,0,0-3.36,2.88c0,.09,0,.16-.05.25a1.12,1.12,0,0,0,0,.87,3.3,3.3,0,0,0,0,.41A80.89,80.89,0,0,0,137,139.2a3.48,3.48,0,0,0,0-5ZM80.45,18.14a62.61,62.61,0,0,0-59,41.38H10.16A73.87,73.87,0,0,1,129.5,25.22l-8.15,8.16A62.53,62.53,0,0,0,80.45,18.14Zm.45,136.68a73.61,73.61,0,0,1-70.7-52.45H21.52a62.63,62.63,0,0,0,99.82,26l8.16,8.16A73.52,73.52,0,0,1,80.9,154.83Z"/></g></g></svg>