<svg width="64" height="64" xmlns="http://www.w3.org/2000/svg" xmlns:xlink="http://www.w3.org/1999/xlink" xml:space="preserve" overflow="hidden"><g transform="translate(-83 -72)"><path d="M117.95 120 112.04 120C111.47 120 111 119.54 111 118.96L111 115.28C109.62 114.79 108.33 114.05 107.21 113.1L104.03 114.94C103.54 115.23 102.9 115.06 102.61 114.56L99.66 109.44C99.52 109.2 99.49 108.92 99.56 108.65 99.63 108.38 99.8 108.16 100.04 108.02L103.23 106.18C103.09 105.44 103.02 104.71 103.02 104 103.02 103.29 103.09 102.55 103.23 101.82L100.04 99.98C99.8 99.84 99.63 99.62 99.56 99.35 99.49 99.08 99.53 98.8 99.66 98.56L102.61 93.44C102.9 92.94 103.53 92.77 104.03 93.06L107.21 94.9C108.33 93.95 109.61 93.21 111 92.72L111 89.04C111 88.47 111.46 88 112.04 88L117.95 88C118.52 88 118.99 88.46 118.99 89.04L118.99 92.72C120.37 93.21 121.66 93.95 122.78 94.9L125.96 93.06C126.46 92.77 127.09 92.94 127.38 93.44L130.33 98.56C130.47 98.8 130.5 99.08 130.43 99.35 130.36 99.62 130.19 99.84 129.95 99.98L126.76 101.82C126.9 102.56 126.97 103.29 126.97 104 126.97 104.71 126.9 105.45 126.76 106.18L129.95 108.02C130.19 108.16 130.36 108.38 130.43 108.65 130.5 108.92 130.46 109.2 130.33 109.44L127.38 114.56C127.09 115.06 126.46 115.23 125.96 114.94L122.78 113.1C121.66 114.05 120.38 114.79 118.99 115.28L118.99 118.96C118.99 119.53 118.53 120 117.95 120ZM113.08 117.92 116.91 117.92 116.91 114.52C116.91 114.05 117.22 113.65 117.67 113.52 119.26 113.07 120.73 112.23 121.91 111.07 122.24 110.74 122.75 110.68 123.15 110.91L126.09 112.61 128.01 109.29 125.06 107.59C124.66 107.36 124.46 106.89 124.57 106.44 124.78 105.61 124.89 104.79 124.89 103.99 124.89 103.19 124.78 102.37 124.57 101.54 124.46 101.09 124.65 100.62 125.06 100.39L128.01 98.69 126.09 95.37 123.15 97.07C122.75 97.3 122.24 97.24 121.91 96.91 120.73 95.76 119.26 94.91 117.67 94.46 117.22 94.34 116.91 93.93 116.91 93.46L116.91 90.06 113.08 90.06 113.08 93.46C113.08 93.93 112.77 94.33 112.32 94.46 110.73 94.91 109.26 95.75 108.08 96.91 107.75 97.24 107.24 97.3 106.84 97.07L103.9 95.37 101.98 98.69 104.93 100.39C105.33 100.62 105.53 101.09 105.42 101.54 105.21 102.37 105.1 103.19 105.1 103.99 105.1 104.79 105.21 105.61 105.42 106.44 105.53 106.89 105.34 107.36 104.93 107.59L101.98 109.29 103.9 112.61 106.84 110.91C107.24 110.68 107.75 110.74 108.08 111.07 109.26 112.22 110.73 113.07 112.32 113.52 112.77 113.65 113.08 114.05 113.08 114.52L113.08 117.92Z" fill="#006BBD"/><path d="M121 102.71 116.29 102.71 116.29 98 113.71 98 113.71 102.71 109 102.71 109 105.29 113.71 105.29 113.71 110 116.29 110 116.29 105.29 121 105.29 121 102.71Z" fill="#006BBD"/></g></svg>