<svg id="Group_4230" data-name="Group 4230" xmlns="http://www.w3.org/2000/svg" xmlns:xlink="http://www.w3.org/1999/xlink" width="25.098" height="24" viewBox="0 0 25.098 24">
  <defs>
    <clipPath id="clip-path">
      <rect id="Rectangle_800" data-name="Rectangle 800" width="25.098" height="24" fill="#006bbd"/>
    </clipPath>
  </defs>
  <g id="Group_4229" data-name="Group 4229" clip-path="url(#clip-path)">
    <path id="Path_1748" data-name="Path 1748" d="M15.852,0a5.434,5.434,0,1,0,5.434,5.434A5.441,5.441,0,0,0,15.852,0m0,8.965a3.531,3.531,0,1,1,3.531-3.531,3.534,3.534,0,0,1-3.531,3.531" transform="translate(-5.209)" fill="#006bbd"/>
    <path id="Path_1749" data-name="Path 1749" d="M0,37.5H14.276V35.139H2.365v-.169c0-3.283,3.4-5.575,8.278-5.575a12.81,12.81,0,0,1,3.633.493V27.444a15.706,15.706,0,0,0-3.633-.414C4.377,27.03,0,30.3,0,34.971Z" transform="translate(0 -13.515)" fill="#006bbd"/>
    <path id="Path_1750" data-name="Path 1750" d="M39.7,32.426v-.338A.705.705,0,0,0,39,31.382H37.827a3.423,3.423,0,0,0-.371-.891l.827-.827a.706.706,0,0,0,0-1l-.239-.239a.705.705,0,0,0-1,0l-.827.828a3.454,3.454,0,0,0-.892-.372V27.715a.706.706,0,0,0-.705-.705h-.338a.706.706,0,0,0-.706.705v1.168a3.454,3.454,0,0,0-.891.372l-.827-.828a.705.705,0,0,0-1,0l-.239.239a.706.706,0,0,0,0,1l.827.827a3.423,3.423,0,0,0-.372.891H29.911a.705.705,0,0,0-.705.706v.338a.705.705,0,0,0,.705.706h1.168a3.416,3.416,0,0,0,.372.891l-.828.828a.706.706,0,0,0,0,1l.239.239a.705.705,0,0,0,1,0l.827-.828a3.454,3.454,0,0,0,.891.372V36.8a.706.706,0,0,0,.706.706h.338a.706.706,0,0,0,.705-.706V35.631a3.454,3.454,0,0,0,.892-.372l.827.828a.705.705,0,0,0,1,0l.239-.239a.706.706,0,0,0,0-1l-.828-.828a3.416,3.416,0,0,0,.371-.891H39a.705.705,0,0,0,.706-.706m-5.248,1.58A1.749,1.749,0,1,1,36.2,32.257a1.751,1.751,0,0,1-1.749,1.749" transform="translate(-14.603 -13.505)" fill="#006bbd"/>
  </g>
</svg>
