<svg width="64" height="64" xmlns="http://www.w3.org/2000/svg" xmlns:xlink="http://www.w3.org/1999/xlink" xml:space="preserve" overflow="hidden"><g transform="translate(-608 -328)"><path d="M654.75 367.96 648.66 361.87C650.62 359.64 650.56 356.25 648.43 354.12L645.42 351.11 638.67 344.36C638.19 343.88 637.41 343.88 636.92 344.36L624.22 357.06C623.74 357.54 623.74 358.32 624.22 358.81L630.97 365.56 633.98 368.57C635.09 369.68 636.54 370.23 638 370.23 639.46 370.23 640.91 369.68 642.02 368.57L642.02 368.57C642.02 368.57 648.08 374.62 648.08 374.62 649 375.54 650.21 376 651.41 376 652.61 376 653.82 375.54 654.74 374.62 655.63 373.73 656.12 372.55 656.12 371.29 656.12 370.03 655.63 368.85 654.74 367.96ZM629.35 355.43 632.87 358.95 634.21 357.61 630.69 354.09 633.95 350.83 637.47 354.35 638.81 353.01 635.29 349.49 637.8 346.98 642.81 351.98 631.85 362.94 626.85 357.94 629.36 355.43ZM635.73 366.83 633.59 364.69 644.55 353.73 646.69 355.87C647.94 357.12 647.94 359.16 646.69 360.41L646.08 361.02C646.08 361.02 646.08 361.02 646.08 361.02L641.16 365.94C641.16 365.94 641.16 365.94 641.16 365.94L640.28 366.82C639.03 368.07 636.99 368.07 635.74 366.82ZM653.01 372.88 653.01 372.88C652.14 373.75 650.71 373.75 649.84 372.88L643.78 366.82 646.96 363.64 653.02 369.7C653.44 370.12 653.68 370.69 653.68 371.29 653.68 371.89 653.45 372.45 653.02 372.88Z" fill="#006BBD"/></g></svg>