<?xml version="1.0" encoding="UTF-8"?>
<svg id="Layer_1" data-name="Layer 1" xmlns="http://www.w3.org/2000/svg" viewBox="15.85 16 32.3 32">
  <defs>
    <style>
      .cls-1 {
        fill: #2677C0;
        stroke-width: 0px;
      }
    </style>
  </defs>
  <path class="cls-1" d="M46.75,39.96l-6.09-6.09c1.96-2.23,1.9-5.62-.23-7.75l-3.01-3.01-6.75-6.75c-.48-.48-1.26-.48-1.75,0l-12.7,12.7c-.48.48-.48,1.26,0,1.75l6.75,6.75,3.01,3.01c1.11,1.11,2.56,1.66,4.02,1.66s2.91-.55,4.02-1.66h0s6.06,6.05,6.06,6.05c.92.92,2.13,1.38,3.33,1.38s2.41-.46,3.33-1.38c.89-.89,1.38-2.07,1.38-3.33s-.49-2.44-1.38-3.33ZM21.35,27.43l3.52,3.52,1.34-1.34-3.52-3.52,3.26-3.26,3.52,3.52,1.34-1.34-3.52-3.52,2.51-2.51,5.01,5-10.96,10.96-5-5,2.51-2.51ZM27.73,38.83l-2.14-2.14,10.96-10.96,2.14,2.14c1.25,1.25,1.25,3.29,0,4.54l-.61.61s0,0,0,0l-4.92,4.92s0,0,0,0l-.88.88c-1.25,1.25-3.29,1.25-4.54,0ZM45.01,44.88h0c-.87.87-2.3.87-3.17,0l-6.06-6.06,3.18-3.18,6.06,6.06c.42.42.66.99.66,1.59s-.23,1.16-.66,1.59Z"/>
</svg>