<?xml version="1.0" encoding="UTF-8"?>
<svg id="Layer_1" data-name="Layer 1" xmlns="http://www.w3.org/2000/svg" viewBox="16.5 15.99 31 32">
  <defs>
    <style>
      .cls-1 {
        fill: #2677C0;
        stroke-width: 0px;
      }
    </style>
  </defs>
  <path class="cls-1" d="M40.92,33.98l6.11-9.42c.36-.56.2-1.3-.35-1.66-.56-.36-1.3-.2-1.66.35l-5.4,8.33h-.26c-.15-1.17-.59-2.26-1.24-3.21l2.73-4.73-4.06-7.04c-.33-.57-1.07-.77-1.64-.44-.57.33-.77,1.07-.44,1.64l3.37,5.83-1.7,2.94c-.12-.09-.24-.19-.37-.27.06-.28.09-.56.09-.85,0-2.24-1.82-4.07-4.07-4.07s-4.07,1.82-4.07,4.07c0,.29.03.57.09.85-.13.08-.25.18-.37.27l-1.7-2.94,3.37-5.83c.33-.58.14-1.31-.44-1.64-.58-.33-1.31-.13-1.64.44l-4.06,7.04,2.73,4.73c-.65.95-1.09,2.04-1.24,3.21h-.26l-5.44-8.38c-.36-.56-1.1-.72-1.66-.35-.56.36-.72,1.11-.35,1.66l6.15,9.48h1.64c.07.33.18.65.29.96l-4.26-.06-3.16,5.48,4.06,7.04c.22.38.63.6,1.04.6.2,0,.41-.05.6-.16.57-.33.77-1.07.44-1.64l-3.37-5.83,1.76-3.05,2.78.04-1.74,3.02,4.06,7.04c.22.38.63.6,1.04.6.2,0,.41-.05.6-.16.57-.33.77-1.07.44-1.64l-3.37-5.83,1.27-2.21c1.29,1.1,2.94,1.79,4.77,1.79s3.48-.69,4.77-1.79l1.27,2.21-3.37,5.83c-.33.58-.14,1.31.44,1.64.19.11.4.16.6.16.42,0,.82-.22,1.04-.6l4.06-7.04-1.9-3.29,2.99.02,1.89,3.27-3.37,5.83c-.33.58-.14,1.31.44,1.64.19.11.4.16.6.16.42,0,.82-.22,1.04-.6l4.06-7.04-3.27-5.67-4.25-.03c.07-.23.15-.45.2-.68h1.64ZM32.02,37.54c-2.75,0-4.99-2.24-4.99-4.99,0-1.98,1.18-3.78,3-4.57l1.23-.54-.67-1.16c-.15-.27-.23-.54-.23-.82,0-.92.74-1.66,1.66-1.66s1.66.74,1.66,1.66c0,.28-.08.55-.23.82l-.67,1.16,1.23.54c1.82.8,3,2.59,3,4.57,0,2.75-2.24,4.99-4.99,4.99Z"/>
</svg>