<svg width="64" height="64" xmlns="http://www.w3.org/2000/svg" xmlns:xlink="http://www.w3.org/1999/xlink" xml:space="preserve" overflow="hidden"><g transform="translate(-205 -72)"><path d="M245.92 105.98 252.03 96.56C252.39 96 252.23 95.26 251.68 94.9 251.12 94.54 250.38 94.7 250.02 95.25L244.62 103.58 244.36 103.58C244.21 102.41 243.77 101.32 243.12 100.37L245.85 95.64 241.79 88.6C241.46 88.03 240.72 87.83 240.15 88.16 239.58 88.49 239.38 89.23 239.71 89.8L243.08 95.63 241.38 98.57C241.26 98.48 241.14 98.38 241.01 98.3 241.07 98.02 241.1 97.74 241.1 97.45 241.1 95.21 239.28 93.38 237.03 93.38 234.78 93.38 232.96 95.2 232.96 97.45 232.96 97.74 232.99 98.02 233.05 98.3 232.92 98.38 232.8 98.48 232.68 98.57L230.98 95.63 234.35 89.8C234.68 89.22 234.49 88.49 233.91 88.16 233.33 87.83 232.6 88.03 232.27 88.6L228.21 95.64 230.94 100.37C230.29 101.32 229.85 102.41 229.7 103.58L229.44 103.58 224 95.2C223.64 94.64 222.9 94.48 222.34 94.85 221.78 95.21 221.62 95.96 221.99 96.51L228.14 105.99 229.78 105.99C229.85 106.32 229.96 106.64 230.07 106.95L225.81 106.89 222.65 112.37 226.71 119.41C226.93 119.79 227.34 120.01 227.75 120.01 227.95 120.01 228.16 119.96 228.35 119.85 228.92 119.52 229.12 118.78 228.79 118.21L225.42 112.38 227.18 109.33 229.96 109.37 228.22 112.39 232.28 119.43C232.5 119.81 232.91 120.03 233.32 120.03 233.52 120.03 233.73 119.98 233.92 119.87 234.49 119.54 234.69 118.8 234.36 118.23L230.99 112.4 232.26 110.19C233.55 111.29 235.2 111.98 237.03 111.98 238.86 111.98 240.51 111.29 241.8 110.19L243.07 112.4 239.7 118.23C239.37 118.81 239.56 119.54 240.14 119.87 240.33 119.98 240.54 120.03 240.74 120.03 241.16 120.03 241.56 119.81 241.78 119.43L245.84 112.39 243.94 109.1 246.93 109.12 248.82 112.39 245.45 118.22C245.12 118.8 245.31 119.53 245.89 119.86 246.08 119.97 246.29 120.02 246.49 120.02 246.91 120.02 247.31 119.8 247.53 119.42L251.59 112.38 248.32 106.71 244.07 106.68C244.14 106.45 244.22 106.23 244.27 106L245.91 106ZM237.02 109.54C234.27 109.54 232.03 107.3 232.03 104.55 232.03 102.57 233.21 100.77 235.03 99.98L236.26 99.44 235.59 98.28C235.44 98.01 235.36 97.74 235.36 97.46 235.36 96.54 236.1 95.8 237.02 95.8 237.94 95.8 238.68 96.54 238.68 97.46 238.68 97.74 238.6 98.01 238.45 98.28L237.78 99.44 239.01 99.98C240.83 100.78 242.01 102.57 242.01 104.55 242.01 107.3 239.77 109.54 237.02 109.54Z" fill="#006BBD"/></g></svg>