<svg width="64" height="64" xmlns="http://www.w3.org/2000/svg" xmlns:xlink="http://www.w3.org/1999/xlink" xml:space="preserve" overflow="hidden"><g transform="translate(-608 -328)"><path d="M640.37 364.18C643.34 364.18 646.35 363.29 646.35 361.58L646.35 353.46C646.35 351.75 643.34 350.86 640.37 350.86 637.4 350.86 634.39 351.75 634.39 353.46L634.39 361.58C634.39 363.29 637.4 364.18 640.37 364.18ZM640.37 352.01C643.37 352.01 645.21 352.95 645.21 353.47 645.21 353.99 643.37 354.93 640.37 354.93 637.37 354.93 635.53 353.99 635.53 353.47 635.53 352.95 637.37 352.01 640.37 352.01ZM635.53 355.05 635.69 355.13C636.79 355.72 638.54 356.06 640.37 356.06 642.2 356.06 643.95 355.71 645.05 355.13L645.21 355.05 645.21 356.17C645.21 356.68 643.37 357.63 640.37 357.63 637.37 357.63 635.53 356.69 635.53 356.17L635.53 355.05ZM635.53 357.75 635.69 357.83C636.79 358.41 638.54 358.76 640.37 358.76 642.2 358.76 643.95 358.41 645.05 357.83L645.21 357.75 645.21 358.87C645.21 359.38 643.37 360.33 640.37 360.33 637.37 360.33 635.53 359.39 635.53 358.87L635.53 357.75ZM635.53 360.46 635.69 360.54C636.79 361.13 638.54 361.47 640.37 361.47 642.2 361.47 643.95 361.12 645.05 360.54L645.21 360.46 645.21 361.58C645.21 362.09 643.37 363.04 640.37 363.04 637.37 363.04 635.53 362.1 635.53 361.58L635.53 360.46Z" fill="#006BBD"/><path d="M654.8 345.31C654.8 344.59 654.22 344 653.49 344L630.52 344C627.98 344 625.92 346.06 625.92 348.6L625.92 350.45 625.39 350.45C623.48 350.45 621.92 352.01 621.92 353.92 621.92 354.94 622.37 355.85 623.08 356.49 622.38 357.13 621.92 358.04 621.92 359.06 621.92 360.08 622.37 360.99 623.08 361.62 622.38 362.26 621.92 363.17 621.92 364.19 621.92 366.1 623.48 367.66 625.39 367.66L625.92 367.66 625.92 371.42C625.92 373.96 627.98 376.02 630.52 376.02L653.49 376.02C653.8 376.02 654.07 375.9 654.29 375.72L654.49 375.72 654.49 375.52C654.67 375.3 654.79 375.03 654.79 374.72L654.79 345.33ZM628.54 370.5C628.91 369.84 629.59 369.38 630.39 369.38L652.19 369.38 652.19 373.39 630.53 373.39C629.43 373.39 628.54 372.5 628.54 371.4L628.54 370.5ZM630.53 346.61 652.19 346.61 652.19 367.37 630.39 367.37C629.72 367.37 629.1 367.54 628.54 367.82L628.54 348.59C628.54 347.49 629.43 346.6 630.53 346.6ZM625.93 360.68 625.4 360.68C624.5 360.68 623.77 359.95 623.77 359.05 623.77 358.15 624.5 357.42 625.4 357.42L625.93 357.42 625.93 360.68ZM625.4 352.28 625.93 352.28 625.93 355.54 625.4 355.54C624.5 355.54 623.77 354.81 623.77 353.91 623.77 353.01 624.5 352.28 625.4 352.28ZM625.4 365.81C624.5 365.81 623.77 365.08 623.77 364.18 623.77 363.28 624.5 362.55 625.4 362.55L625.93 362.55 625.93 365.81 625.4 365.81Z" fill="#006BBD"/></g></svg>