<svg width="64" height="64" xmlns="http://www.w3.org/2000/svg" xmlns:xlink="http://www.w3.org/1999/xlink" xml:space="preserve" overflow="hidden"><g transform="translate(-191 -357)"><path d="M219.87 381.96C219.87 383.694 218.464 385.1 216.73 385.1 214.996 385.1 213.59 383.694 213.59 381.96 213.59 380.226 214.996 378.82 216.73 378.82 218.464 378.82 219.87 380.226 219.87 381.96Z" fill="#006BBD"/><path d="M226.55 388.25C226.55 389.984 225.144 391.39 223.41 391.39 221.676 391.39 220.27 389.984 220.27 388.25 220.27 386.516 221.676 385.11 223.41 385.11 225.144 385.11 226.55 386.516 226.55 388.25Z" fill="#006BBD"/><path d="M226.55 401.86C226.55 403.594 225.144 405 223.41 405 221.676 405 220.27 403.594 220.27 401.86 220.27 400.126 221.676 398.72 223.41 398.72 225.144 398.72 226.55 400.126 226.55 401.86Z" fill="#006BBD"/><path d="M226.55 376.14C226.55 377.874 225.144 379.28 223.41 379.28 221.676 379.28 220.27 377.874 220.27 376.14 220.27 374.406 221.676 373 223.41 373 225.144 373 226.55 374.406 226.55 376.14Z" fill="#006BBD"/><path d="M233.24 381.96C233.24 383.694 231.834 385.1 230.1 385.1 228.366 385.1 226.96 383.694 226.96 381.96 226.96 380.226 228.366 378.82 230.1 378.82 231.834 378.82 233.24 380.226 233.24 381.96Z" fill="#006BBD"/><path d="M218.59 396.02 218.59 393.18C213.06 391.31 209.33 386.22 209.22 380.39L206.49 380.39C206.6 387.7 211.53 394.06 218.59 396.02Z" fill="#006BBD"/><path d="M228.23 392.87 228.23 395.79C234.91 393.56 239.4 387.44 239.51 380.39L236.78 380.39C236.68 385.9 233.35 390.76 228.23 392.86Z" fill="#006BBD"/></g></svg>