<?xml version="1.0" encoding="UTF-8"?>
<svg id="Layer_1" data-name="Layer 1" xmlns="http://www.w3.org/2000/svg" viewBox="13.9 16 32.93 32">
  <defs>
    <style>
      .cls-1 {
        fill: #2677C0;
        stroke-width: 0px;
      }
    </style>
  </defs>
  <path class="cls-1" d="M32.37,36.18c2.97,0,5.98-.89,5.98-2.6v-8.12c0-1.71-3.01-2.6-5.98-2.6s-5.98.89-5.98,2.6v8.12c0,1.71,3.01,2.6,5.98,2.6ZM32.37,24.01c3,0,4.84.94,4.84,1.46s-1.84,1.46-4.84,1.46-4.84-.94-4.84-1.46,1.84-1.46,4.84-1.46ZM27.53,27.05l.16.08c1.1.59,2.85.93,4.68.93s3.58-.35,4.68-.93l.16-.08v1.12c0,.51-1.84,1.46-4.84,1.46s-4.84-.94-4.84-1.46v-1.12ZM27.53,29.75l.16.08c1.1.58,2.85.93,4.68.93s3.58-.35,4.68-.93l.16-.08v1.12c0,.51-1.84,1.46-4.84,1.46s-4.84-.94-4.84-1.46v-1.12ZM27.53,32.46l.16.08c1.1.59,2.85.93,4.68.93s3.58-.35,4.68-.93l.16-.08v1.12c0,.51-1.84,1.46-4.84,1.46s-4.84-.94-4.84-1.46v-1.12Z"/>
  <path class="cls-1" d="M46.8,17.31c0-.72-.58-1.31-1.31-1.31h-22.97c-2.54,0-4.6,2.06-4.6,4.6v1.85h-.53c-1.91,0-3.47,1.56-3.47,3.47,0,1.02.45,1.93,1.16,2.57-.7.64-1.16,1.55-1.16,2.57s.45,1.93,1.16,2.56c-.7.64-1.16,1.55-1.16,2.57,0,1.91,1.56,3.47,3.47,3.47h.53v3.76c0,2.54,2.06,4.6,4.6,4.6h22.97c.31,0,.58-.12.8-.3h.2v-.2c.18-.22.3-.49.3-.8v-29.39ZM20.54,42.5c.37-.66,1.05-1.12,1.85-1.12h21.8v4.01h-21.66c-1.1,0-1.99-.89-1.99-1.99v-.9ZM22.53,18.61h21.66v20.76h-21.8c-.67,0-1.29.17-1.85.45v-19.23c0-1.1.89-1.99,1.99-1.99ZM17.93,32.68h-.53c-.9,0-1.63-.73-1.63-1.63s.73-1.63,1.63-1.63h.53v3.26ZM17.4,24.28h.53v3.26h-.53c-.9,0-1.63-.73-1.63-1.63s.73-1.63,1.63-1.63ZM17.4,37.81c-.9,0-1.63-.73-1.63-1.63s.73-1.63,1.63-1.63h.53v3.26h-.53Z"/>
</svg>