<svg width="64" height="64" xmlns="http://www.w3.org/2000/svg" xmlns:xlink="http://www.w3.org/1999/xlink" xml:space="preserve" overflow="hidden"><g transform="translate(-608 -328)"><path d="M654.83 354.86 645.14 354.86 645.14 345.17C645.14 344.53 644.62 344 643.97 343.99L625.18 343.99C624.53 343.99 624.01 344.52 624.01 345.17L624.01 363.96C624.01 364.6 624.54 365.13 625.18 365.13L634.87 365.13 634.87 374.82C634.87 375.47 635.4 375.99 636.04 375.99L654.83 375.99C655.48 375.99 656 375.46 656 374.82L656 356.03C656 355.38 655.48 354.86 654.83 354.86ZM637.21 364.64C637.48 364.54 637.68 364.28 637.68 363.97 637.68 363.58 637.36 363.26 636.97 363.26L636.97 363.26C636.91 363.18 636.84 363.11 636.76 363.05L636.76 363.03C636.75 362.84 636.66 362.67 636.52 362.55 636.38 362.42 636.18 362.38 636.01 362.37 635.74 362.39 635.5 362.56 635.4 362.8L626.36 362.8 626.36 346.36 642.8 346.36 642.8 355.4C642.53 355.52 642.35 355.79 642.37 356.1 642.39 356.45 642.68 356.74 643.05 356.76L643.05 356.76C643.11 356.84 643.18 356.91 643.26 356.97L643.26 356.97C643.26 357.36 643.58 357.68 643.97 357.68 644.27 357.68 644.53 357.49 644.63 357.22L653.65 357.22 653.65 373.66C653.65 373.66 637.21 373.66 637.21 373.66L637.21 364.64Z" fill="#006BBD"/><path d="M643.97 362.58C643.71 362.58 643.51 362.79 643.51 363.04L643.51 363.5 643.05 363.5C642.79 363.5 642.59 363.71 642.59 363.96 642.59 364.21 642.8 364.42 643.05 364.42L643.98 364.42C644.24 364.42 644.44 364.21 644.44 363.96L644.44 363.03C644.44 362.77 644.23 362.57 643.98 362.57Z" fill="#006BBD"/><path d="M643.97 358.53C643.71 358.53 643.51 358.74 643.51 358.99L643.51 361.02C643.51 361.28 643.72 361.48 643.97 361.48 644.22 361.48 644.43 361.27 644.43 361.02L644.43 358.99C644.43 358.73 644.22 358.53 643.97 358.53Z" fill="#006BBD"/><path d="M641.02 355.57 638.99 355.57C638.73 355.57 638.53 355.78 638.53 356.03 638.53 356.28 638.74 356.49 638.99 356.49L641.02 356.49C641.28 356.49 641.48 356.28 641.48 356.03 641.48 355.78 641.27 355.57 641.02 355.57Z" fill="#006BBD"/><path d="M636.96 355.57 636.03 355.57C635.77 355.57 635.57 355.78 635.57 356.03L635.57 356.96C635.59 357.22 635.81 357.41 636.06 357.39 636.29 357.37 636.48 357.19 636.49 356.96L636.49 356.5 636.95 356.5C637.21 356.5 637.41 356.29 637.41 356.04 637.41 355.79 637.2 355.58 636.95 355.58Z" fill="#006BBD"/><path d="M636.03 358.53C635.77 358.53 635.57 358.74 635.57 358.99L635.57 361.02C635.59 361.28 635.81 361.47 636.06 361.45 636.29 361.43 636.48 361.25 636.49 361.02L636.49 358.99C636.49 358.73 636.28 358.53 636.03 358.53Z" fill="#006BBD"/><path d="M641.02 363.51 638.99 363.51C638.73 363.51 638.53 363.72 638.53 363.97 638.53 364.22 638.74 364.43 638.99 364.43L641.02 364.43C641.28 364.43 641.48 364.22 641.48 363.97 641.48 363.72 641.27 363.51 641.02 363.51Z" fill="#006BBD"/></g></svg>