<?xml version="1.0" encoding="UTF-8"?>
<svg id="Layer_1" data-name="Layer 1" xmlns="http://www.w3.org/2000/svg" viewBox="16 15.95 32.05 32.1">
  <defs>
    <style>
      .cls-1 {
        fill: #2677C0;
        stroke-width: 0px;
      }
    </style>
  </defs>
  <path class="cls-1" d="M46.83,26.86h-9.69v-9.69c0-.64-.52-1.17-1.17-1.18h-18.79c-.65,0-1.17.53-1.17,1.18v18.79c0,.64.53,1.17,1.17,1.17h9.69v9.69c0,.65.53,1.17,1.17,1.17h18.79c.65,0,1.17-.53,1.17-1.17v-18.79c0-.65-.52-1.17-1.17-1.17ZM29.21,36.64c.27-.1.47-.36.47-.67,0-.39-.32-.71-.71-.71h0c-.06-.08-.13-.15-.21-.21v-.02c-.01-.19-.1-.36-.24-.48-.14-.13-.34-.17-.51-.18-.27.02-.51.19-.61.43h-9.04v-16.44h16.44v9.04c-.27.12-.45.39-.43.7.02.35.31.64.68.66h0c.06.08.13.15.21.21h0c0,.39.32.71.71.71.3,0,.56-.19.66-.46h9.02v16.44s-16.44,0-16.44,0v-9.02Z"/>
  <path class="cls-1" d="M35.97,34.58c-.26,0-.46.21-.46.46v.46h-.46c-.26,0-.46.21-.46.46s.21.46.46.46h.93c.26,0,.46-.21.46-.46v-.93c0-.26-.21-.46-.46-.46Z"/>
  <path class="cls-1" d="M35.97,30.53c-.26,0-.46.21-.46.46v2.03c0,.26.21.46.46.46s.46-.21.46-.46v-2.03c0-.26-.21-.46-.46-.46Z"/>
  <path class="cls-1" d="M33.02,27.57h-2.03c-.26,0-.46.21-.46.46s.21.46.46.46h2.03c.26,0,.46-.21.46-.46s-.21-.46-.46-.46Z"/>
  <path class="cls-1" d="M28.96,27.57h-.93c-.26,0-.46.21-.46.46v.93c.02.26.24.45.49.43.23-.02.42-.2.43-.43v-.46h.46c.26,0,.46-.21.46-.46s-.21-.46-.46-.46Z"/>
  <path class="cls-1" d="M28.03,30.53c-.26,0-.46.21-.46.46v2.03c.02.26.24.45.49.43.23-.02.42-.2.43-.43v-2.03c0-.26-.21-.46-.46-.46Z"/>
  <path class="cls-1" d="M33.02,35.51h-2.03c-.26,0-.46.21-.46.46s.21.46.46.46h2.03c.26,0,.46-.21.46-.46s-.21-.46-.46-.46Z"/>
</svg>