<?xml version="1.0" encoding="UTF-8"?>
<svg id="Layer_1" data-name="Layer 1" xmlns="http://www.w3.org/2000/svg" viewBox="16.35 15.7 31.3 32.7">
  <defs>
    <style>
      .cls-1 {
        fill: #2677C0;
        stroke-width: 0px;
      }
    </style>
  </defs>
  <path class="cls-1" d="M43.51,30.07v-8.23c0-3.83-6.76-5.84-13.44-5.84s-13.43,2.01-13.43,5.84v18.23c0,3.83,6.76,5.84,13.43,5.84.36,0,.72-.04,1.08-.05,1.7,1.32,3.82,2.15,6.14,2.15,5.55,0,10.07-4.52,10.07-10.07,0-3.2-1.53-6.02-3.86-7.86ZM30.07,18.56c6.74,0,10.87,2.12,10.87,3.28s-4.13,3.27-10.87,3.27-10.87-2.12-10.87-3.27,4.13-3.28,10.87-3.28ZM19.2,25.39l.35.19c2.48,1.31,6.41,2.1,10.52,2.1s8.05-.78,10.52-2.1l.35-.19v2.52c0,.17-.11.36-.29.57-1.05-.38-2.17-.62-3.36-.62-2.95,0-5.58,1.3-7.42,3.32-6.62-.04-10.67-2.12-10.67-3.27v-2.52ZM19.2,31.47l.35.19c2.09,1.11,5.24,1.83,8.65,2.03-.49,1.05-.79,2.2-.89,3.42-5.06-.48-8.11-2.13-8.11-3.11v-2.52ZM19.2,40.07v-2.52l.35.19c1.93,1.02,4.76,1.7,7.86,1.96.23,1.31.72,2.52,1.4,3.6-5.97-.25-9.61-2.15-9.61-3.23ZM37.29,46.02c-4.46,0-8.08-3.63-8.08-8.08s3.63-8.08,8.08-8.08,8.08,3.63,8.08,8.08-3.63,8.08-8.08,8.08Z"/>
  <polygon class="cls-1" points="40.89 36.68 37.47 33.26 34.04 36.68 36.34 36.68 36.34 42.61 38.59 42.61 38.59 36.68 40.89 36.68"/>
</svg>