<svg width="64" height="64" xmlns="http://www.w3.org/2000/svg" xmlns:xlink="http://www.w3.org/1999/xlink" xml:space="preserve" overflow="hidden"><g transform="translate(-492 -311)"><path d="M535.51 341.07 535.51 332.84C535.51 329.01 528.75 327 522.07 327 515.39 327 508.64 329.01 508.64 332.84L508.64 351.07C508.64 354.9 515.4 356.91 522.07 356.91 522.43 356.91 522.79 356.87 523.15 356.86 524.85 358.18 526.97 359.01 529.29 359.01 534.84 359.01 539.36 354.49 539.36 348.94 539.36 345.74 537.83 342.92 535.5 341.08ZM522.07 329.56C528.81 329.56 532.94 331.68 532.94 332.84 532.94 334 528.81 336.11 522.07 336.11 515.33 336.11 511.2 333.99 511.2 332.84 511.2 331.69 515.33 329.56 522.07 329.56ZM511.2 336.39 511.55 336.58C514.03 337.89 517.96 338.68 522.07 338.68 526.18 338.68 530.12 337.9 532.59 336.58L532.94 336.39 532.94 338.91C532.94 339.08 532.83 339.27 532.65 339.48 531.6 339.1 530.48 338.86 529.29 338.86 526.34 338.86 523.71 340.16 521.87 342.18 515.25 342.14 511.2 340.06 511.2 338.91L511.2 336.39ZM511.2 342.47 511.55 342.66C513.64 343.77 516.79 344.49 520.2 344.69 519.71 345.74 519.41 346.89 519.31 348.11 514.25 347.63 511.2 345.98 511.2 345L511.2 342.48ZM511.2 351.07 511.2 348.55 511.55 348.74C513.48 349.76 516.31 350.44 519.41 350.7 519.64 352.01 520.13 353.22 520.81 354.3 514.84 354.05 511.2 352.15 511.2 351.07ZM529.29 357.02C524.83 357.02 521.21 353.39 521.21 348.94 521.21 344.49 524.84 340.86 529.29 340.86 533.74 340.86 537.37 344.49 537.37 348.94 537.37 353.39 533.74 357.02 529.29 357.02Z" fill="#006BBD"/><path d="M532.89 347.68 529.47 344.26 526.04 347.68 528.34 347.68 528.34 353.61 530.59 353.61 530.59 347.68 532.89 347.68Z" fill="#006BBD"/></g></svg>