<?xml version="1.0" encoding="UTF-8"?><svg id="uuid-6fb4020b-ea1c-439a-886c-0f2a5226b3a2" xmlns="http://www.w3.org/2000/svg" viewBox="0 0 53 53"><defs><style>.uuid-365b863a-c73b-4817-8277-0072dc2d5860{fill:#2677c0;stroke-width:0px;}</style></defs><path class="uuid-365b863a-c73b-4817-8277-0072dc2d5860" d="M26.5,2.5C15.78,2.5,4.94,5.72,4.94,11.87v29.26c0,6.15,10.85,9.37,21.56,9.37s21.56-3.22,21.56-9.37V11.87c0-6.15-10.85-9.37-21.56-9.37ZM43.95,41.13c0,1.85-6.63,5.26-17.45,5.26s-17.45-3.4-17.45-5.26v-4.05l.56.3c3.97,2.11,10.28,3.37,16.89,3.37s12.92-1.26,16.89-3.37l.56-.3v4.05ZM43.95,31.38c0,1.85-6.63,5.26-17.45,5.26s-17.45-3.4-17.45-5.26v-4.04l.56.3c3.97,2.11,10.28,3.37,16.89,3.37s12.92-1.26,16.89-3.37l.56-.3v4.04ZM43.95,21.62c0,1.85-6.63,5.26-17.45,5.26s-17.45-3.4-17.45-5.26v-4.05l.56.3c3.97,2.11,10.29,3.37,16.89,3.37s12.91-1.26,16.89-3.37l.56-.3v4.05ZM26.5,17.13c-10.82,0-17.45-3.4-17.45-5.26s6.62-5.26,17.45-5.26,17.45,3.4,17.45,5.26-6.63,5.26-17.45,5.26Z"/></svg>