<?xml version="1.0" encoding="UTF-8"?><svg id="uuid-08b7a2b6-241c-4867-b276-cf87a297d96b" xmlns="http://www.w3.org/2000/svg" viewBox="0 0 53 53"><defs><style>.uuid-e2764c21-03d2-476f-8faf-66edb23de79a{fill:#2677c0;stroke-width:0px;}</style></defs><path class="uuid-e2764c21-03d2-476f-8faf-66edb23de79a" d="M44.86,2.5H12.74c-3.55,0-6.43,3.09-6.43,6.9v34.2c0,3.8,2.89,6.9,6.43,6.9h32.12c.43,0,.81-.18,1.12-.45l.28-.3c.25-.34.42-.74.42-1.2V4.46c0-1.08-.82-1.96-1.83-1.96ZM43.04,46.58H12.74c-1.53,0-2.78-1.34-2.78-2.98v-1.35c.52-.99,1.46-1.68,2.59-1.68h30.49v6.01ZM43.04,37.56H12.55c-.93,0-1.81.26-2.59.68V9.4c0-1.64,1.25-2.98,2.78-2.98h30.29v31.14Z"/></svg>