<?xml version="1.0" encoding="UTF-8"?>
<svg id="Layer_1" data-name="Layer 1" xmlns="http://www.w3.org/2000/svg" viewBox="0 0 90.13 89.84">
  <defs>
    <style>
      .cls-1 {
        fill: #e48f10;
        stroke-width: 0px;
      }
    </style>
  </defs>
  <polygon class="cls-1" points="61 39.65 57.48 45.7 78.54 53.34 44.42 66.1 11.6 53.51 30.36 46.33 26.81 40.27 5.04 48.6 5.04 68.54 44.29 83.6 85.1 68.33 85.1 48.39 61 39.65"/>
  <path class="cls-1" d="M43.74,34.79c.59,0,1.18-.06,1.76-.17h0c3.67-.7,6.59-3.63,7.29-7.29.58-3.05-.37-6.17-2.54-8.33-2.17-2.17-5.29-3.12-8.33-2.54-3.67.7-6.59,3.63-7.29,7.29-.58,3.05.37,6.16,2.54,8.33,1.75,1.75,4.12,2.71,6.57,2.71ZM38.47,24.48c.39-2.07,2.11-3.79,4.18-4.18.36-.07.72-.1,1.07-.1,1.42,0,2.76.55,3.78,1.57,1.27,1.27,1.81,3.04,1.47,4.85-.39,2.07-2.11,3.79-4.18,4.18-1.81.34-3.58-.19-4.85-1.47-1.27-1.27-1.81-3.04-1.47-4.85Z"/>
  <path class="cls-1" d="M42.07,59.58c.35.6.99.96,1.68.96h0c.69,0,1.33-.37,1.68-.97l14.42-24.73c4.43-7.59,3.31-17.09-2.72-23.08-3.58-3.56-8.34-5.52-13.42-5.52-4.67,0-9.15,1.69-12.62,4.77-6.67,5.91-8.13,15.96-3.48,23.89l14.46,24.68ZM33.69,13.93c2.79-2.48,6.26-3.78,10.03-3.78,4.04,0,7.83,1.56,10.67,4.38,4.77,4.75,5.64,12.29,2.1,18.36l-12.74,21.85-12.77-21.8c-3.71-6.33-2.57-14.33,2.71-19.01Z"/>
</svg>