<svg xmlns="http://www.w3.org/2000/svg" xmlns:xlink="http://www.w3.org/1999/xlink" width="740" height="565" viewBox="0 0 740 565">
  <defs>
    <clipPath id="clip-path">
      <rect id="Rectangle_788" data-name="Rectangle 788" width="740" height="565" transform="translate(1180 515)" fill="#fff"/>
    </clipPath>
    <clipPath id="clip-path-2">
      <rect id="Rectangle_787" data-name="Rectangle 787" width="1067.86" height="1107.846" transform="translate(0 0.004)" fill="none" stroke="#eef5fc" stroke-width="1"/>
    </clipPath>
  </defs>
  <g id="Mask_Group_1" data-name="Mask Group 1" transform="translate(-1180 -515)" clip-path="url(#clip-path)">
    <g id="Group_4219" data-name="Group 4219" transform="translate(1191 526.073)">
      <g id="Group_4216" data-name="Group 4216" clip-path="url(#clip-path-2)">
        <path id="Path_1728" data-name="Path 1728" d="M668.046,806.129a24.324,24.324,0,0,0-30.007-13.9C506.446,838.664,362.124,769.632,315.687,638.04s22.6-275.915,154.187-322.352c124.777-44.032,262.391,15.657,315.5,136.847a24.283,24.283,0,0,0,30.655,12.41l235.876-93.094a23.682,23.682,0,0,0,13.679-30.572l-.021-.055a2.582,2.582,0,0,0-.178-.451C947.325,58.689,622.941-74.275,340.857,43.789A553.684,553.684,0,0,0,111.03,223.2a23.6,23.6,0,0,0,4.07,33.122l.176.136.393.17.747.324A14.3,14.3,0,0,0,124,260.241l111.462,48.346a24.2,24.2,0,0,0,26.724-5.54,21.674,21.674,0,0,0,5.365-3.975c140.156-157.013,381.049-170.7,538.093-30.584a403.679,403.679,0,0,1,88.478,115.867L820.474,413.7C742.731,267.569,561.408,211.887,415.047,289.2A305.346,305.346,0,0,0,290.786,413.714L78.626,321.691A25.266,25.266,0,0,0,46.8,334.914a23.9,23.9,0,0,0,12.131,31.542l.08.035,211.727,91.836c-53.865,156.28,29.159,326.636,185.44,380.5.026.01.052.018.078.027l.629.273a304.742,304.742,0,0,0,175.77,5.985l29.189,73.905c-200.83,61.236-413.275-51.927-474.511-252.756l-.007-.023-.565-1.926a370.824,370.824,0,0,1-14.533-145.038c.323-.746-.462-1.087-.139-1.833A23.854,23.854,0,0,0,158.437,490.8L42.063,440.319a23.126,23.126,0,0,0-29.106,8.988l-.665,1.532a7.152,7.152,0,0,0-2.3,5.3L9,458.422c-52.435,301.231,149.189,587.955,450.4,640.5l.393.17a559.884,559.884,0,0,0,287.995-26.422,23.683,23.683,0,0,0,13.679-30.571c-.007-.018-.014-.037-.022-.055a1.284,1.284,0,0,0-.177-.451ZM722.41,159.472a428.254,428.254,0,0,0-482.8,99.614l-71.27-30.913C348.2,15.069,666.75-11.887,879.854,167.966l.112.094.661.52a512.713,512.713,0,0,1,130.189,169.295l-73.961,29.211A425.044,425.044,0,0,0,722.41,159.472Zm-368.9,858.887a504.1,504.1,0,0,1-301.58-521.8l71.27,30.912C108.983,763.52,288.4,966.593,524.4,981.569a446.453,446.453,0,0,0,154.054-18.746l29.228,73.922A500.458,500.458,0,0,1,353.514,1018.359Z" fill="none" stroke="#eef5fc" stroke-width="1.417"/>
      </g>
    </g>
  </g>
</svg>
