<svg xmlns="http://www.w3.org/2000/svg" xmlns:xlink="http://www.w3.org/1999/xlink" width="17.073" height="24" viewBox="0 0 17.073 24">
  <defs>
    <clipPath id="clip-path">
      <rect id="Rectangle_799" data-name="Rectangle 799" width="17.073" height="24" fill="#006bbd"/>
    </clipPath>
  </defs>
  <g id="Group_4228" data-name="Group 4228" transform="translate(0 0)">
    <g id="Group_4227" data-name="Group 4227" transform="translate(0 0)" clip-path="url(#clip-path)">
      <path id="Path_1744" data-name="Path 1744" d="M7.335,9.7H6.082V6.608a.945.945,0,0,0-.944-.944,2.2,2.2,0,0,1-2.2-2.2V0H4.194V3.468a.946.946,0,0,0,.944.944,2.2,2.2,0,0,1,2.2,2.2Z" transform="translate(0.552 0)" fill="#006bbd"/>
      <path id="Path_1745" data-name="Path 1745" d="M8.986,9.7H7.733V6.608a2.2,2.2,0,0,1,2.2-2.2.946.946,0,0,0,.944-.944V0h1.253V3.468a2.2,2.2,0,0,1-2.2,2.2.945.945,0,0,0-.944.944Z" transform="translate(1.452 0)" fill="#006bbd"/>
      <path id="Path_1746" data-name="Path 1746" d="M7.1,5.844c.07,0,.132-.008.2-.008s.132.007.2.008V5.82a2.621,2.621,0,0,1,.552-1.6c-.252-.008-.5-.014-.755-.014s-.5.006-.755.014A2.621,2.621,0,0,1,7.1,5.82Z" transform="translate(1.23 0.79)" fill="#006bbd"/>
      <path id="Path_1747" data-name="Path 1747" d="M13.034,4.642a2.618,2.618,0,0,1-1.652.6.5.5,0,0,0-.5.5v.173c2.862.368,4.561,1.337,4.561,1.924,0,.734-2.622,2.081-6.908,2.081S1.628,8.57,1.628,7.836c0-.587,1.7-1.556,4.562-1.924V5.738a.5.5,0,0,0-.5-.5,2.624,2.624,0,0,1-1.653-.6C1.711,5.225,0,6.3,0,7.836V19.418c0,2.436,4.295,3.71,8.536,3.71s8.536-1.274,8.536-3.71V7.836c0-1.537-1.71-2.611-4.038-3.194m2.41,14.776c0,.734-2.622,2.082-6.908,2.082s-6.908-1.348-6.908-2.082v-1.6l.222.118a15.2,15.2,0,0,0,6.686,1.334,15.2,15.2,0,0,0,6.686-1.334l.222-.118Zm0-3.861c0,.734-2.622,2.082-6.908,2.082s-6.908-1.348-6.908-2.082v-1.6l.222.118a15.228,15.228,0,0,0,6.686,1.333,15.224,15.224,0,0,0,6.686-1.333l.222-.118Zm0-3.86c0,.734-2.622,2.081-6.908,2.081S1.628,12.431,1.628,11.7v-1.6l.222.118a15.217,15.217,0,0,0,6.686,1.334,15.213,15.213,0,0,0,6.686-1.334l.222-.118Z" transform="translate(0 0.872)" fill="#006bbd"/>
    </g>
  </g>
</svg>
