<?xml version="1.0" encoding="UTF-8"?>
<svg id="Layer_1" data-name="Layer 1" xmlns="http://www.w3.org/2000/svg" viewBox="0 0 90.13 89.84">
  <defs>
    <style>
      .cls-1 {
        fill: #01bff3;
        stroke-width: 0px;
      }
    </style>
  </defs>
  <path class="cls-1" d="M64.6,37.44v-21.3c0-.1-.02-.21-.05-.32,0-.03-.02-.06-.03-.09-.03-.09-.07-.17-.12-.24l-.25.11.21-.17c-.06-.09-.13-.17-.22-.25l-.06-.05c-.07-.06-.15-.11-.22-.14l-18.36-8.61c-.4-.19-.87-.19-1.27,0l-17.97,8.6c-.08.04-.16.1-.24.16l.16.21-.21-.16c-.08.07-.16.16-.22.25l-.04.06c-.05.08-.08.16-.12.26l-.02.07c-.03.12-.05.23-.05.33v21.28c0,.51.3.97.78,1.2l18.11,8.7s.09.04.13.05l.13-.23-.06.25.09.03c.12.03.24.05.36.05s.23-.02.36-.05l.09-.03-.1-.24.17.22s.09-.03.13-.05l18.11-8.7c.48-.23.78-.69.78-1.2ZM44.72,47.17h0s0,0,0,0h0ZM45.45,47.15h0s0,0,0,0ZM45.07,23.35l-14.96-7.19,14.79-7.07,15.11,7.09-14.94,7.18ZM61.76,36.61l-15.27,7.33v-18.26l15.27-7.33v18.26ZM63.71,15.2s0,0,0,0h0s0,0,0,0Z"/>
  <path class="cls-1" d="M86.13,52.25c0-.1-.02-.21-.05-.32l-.03-.08c-.03-.09-.07-.17-.12-.25l-.25.11.21-.17c-.06-.09-.13-.17-.22-.25l-.06-.05c-.08-.06-.16-.11-.22-.14l-18.36-8.61c-.4-.19-.87-.19-1.27,0l-17.97,8.6c-.09.04-.17.1-.24.16l.16.21-.21-.16c-.08.07-.16.16-.22.25l-.03.06c-.05.08-.08.16-.12.26l-.02.07c-.03.12-.05.23-.05.33v21.28c0,.51.3.97.78,1.2l18.11,8.7s.09.04.19.07l.09.03c.12.03.24.05.36.05s.23-.02.36-.05l.15-.05s.09-.03.14-.05l18.11-8.7c.48-.23.78-.69.78-1.2v-21.3ZM66.26,83.28h0s0,0,0,0h0ZM66.6,59.47l-14.96-7.19,14.79-7.07,15.11,7.09-14.94,7.18ZM83.29,72.73l-15.27,7.33v-18.26l15.27-7.33v18.26ZM85.24,51.31s0,0,0,0h0s0,0,0,0Z"/>
  <path class="cls-1" d="M43.06,52.27v-.02c0-.1-.02-.21-.05-.32,0-.03-.02-.06-.03-.08-.03-.09-.07-.17-.12-.24l-.25.11.21-.17c-.06-.09-.13-.17-.22-.25l-.06-.04c-.07-.06-.16-.11-.22-.14l-18.36-8.61c-.4-.19-.87-.19-1.27,0l-17.97,8.6c-.09.04-.16.1-.24.16l.16.21-.22-.16c-.08.07-.15.16-.22.25l-.03.06c-.05.08-.08.16-.12.26l-.02.07c-.03.12-.05.23-.05.33v21.28c0,.51.3.97.78,1.2l18.11,8.7s.09.04.19.07l.09.03c.12.03.24.05.36.05s.23-.02.36-.05l.15-.05s.09-.03.14-.05l18.11-8.7c.48-.23.78-.69.78-1.2v-21.28s0,0,0,0ZM23.18,83.28h0s0,0,0,0h0ZM23.53,59.47l-14.96-7.19,14.79-7.07,15.12,7.09-14.94,7.18ZM40.22,72.73l-15.27,7.33v-18.26l15.27-7.33v18.26ZM42.17,51.31s0,0,0,0h0s0,0,0,0Z"/>
</svg>