<?xml version="1.0" encoding="UTF-8"?>
<svg id="Layer_1" data-name="Layer 1" xmlns="http://www.w3.org/2000/svg" viewBox="0 0 120 120">
  <defs>
    <style>
      .cls-1 {
        fill: #01bff3;
      }

      .cls-1, .cls-2 {
        stroke-width: 0px;
      }

      .cls-2 {
        fill: #ebfbff;
      }
    </style>
  </defs>
  <circle class="cls-2" cx="60" cy="60" r="57.51"/>
  <g>
    <g>
      <path class="cls-1" d="M35.3,83.89h5.09c3.58,0,6.24,1.24,6.24,4.98s-2.67,5.23-6.14,5.23h-2.32v5.93h-2.86v-16.14ZM40.24,91.81c2.41,0,3.55-.96,3.55-2.94s-1.25-2.69-3.65-2.69h-1.98v5.63h2.08Z"/>
      <path class="cls-1" d="M47.83,96.78c0-2.6,2.15-3.95,7.13-4.48-.04-1.3-.56-2.39-2.2-2.39-1.2,0-2.34.54-3.41,1.19l-1.05-1.9c1.33-.84,3.05-1.59,4.98-1.59,3.03,0,4.52,1.87,4.52,5.24v7.18h-2.33l-.22-1.34h-.08c-1.09.93-2.33,1.64-3.76,1.64-2.12,0-3.58-1.44-3.58-3.55ZM54.95,96.79v-2.72c-3.29.41-4.38,1.27-4.38,2.5,0,1.07.73,1.54,1.75,1.54s1.74-.48,2.64-1.31Z"/>
      <path class="cls-1" d="M60.56,96.78c0-2.6,2.15-3.95,7.13-4.48-.04-1.3-.56-2.39-2.2-2.39-1.2,0-2.34.54-3.41,1.19l-1.05-1.9c1.33-.84,3.05-1.59,4.98-1.59,3.03,0,4.52,1.87,4.52,5.24v7.18h-2.33l-.22-1.34h-.08c-1.09.93-2.33,1.64-3.76,1.64-2.12,0-3.58-1.44-3.58-3.55ZM67.69,96.79v-2.72c-3.29.41-4.38,1.27-4.38,2.5,0,1.07.73,1.54,1.75,1.54s1.74-.48,2.64-1.31Z"/>
      <path class="cls-1" d="M73.09,97.97l1.67-1.96c1.16,1.1,2.71,1.84,4.21,1.84,1.82,0,2.81-.82,2.81-2.08,0-1.33-1.04-1.75-2.51-2.37l-2.21-.96c-1.59-.66-3.26-1.92-3.26-4.28,0-2.57,2.27-4.55,5.42-4.55,1.89,0,3.71.78,4.98,2.06l-1.47,1.82c-1.03-.87-2.12-1.39-3.51-1.39-1.53,0-2.53.72-2.53,1.9,0,1.27,1.23,1.74,2.57,2.29l2.18.91c1.92.8,3.26,2.01,3.26,4.35,0,2.62-2.17,4.8-5.8,4.8-2.18,0-4.29-.86-5.82-2.36Z"/>
    </g>
    <g>
      <path class="cls-1" d="M75.07,43.74v-16.42h0c0-.09-.01-.17-.04-.26,0-.02-.01-.04-.02-.07-.02-.07-.05-.13-.09-.19l-.19.08.16-.13c-.05-.07-.1-.13-.17-.19l-.05-.04c-.06-.05-.12-.09-.17-.11l-14.16-6.65c-.31-.14-.67-.14-.98,0l-13.87,6.64c-.06.03-.13.07-.18.12l.12.16-.17-.13c-.06.06-.12.12-.17.19l-.03.05c-.04.06-.06.12-.09.2l-.02.05c-.02.09-.04.17-.04.26v16.42c0,.39.23.75.6.93l13.97,6.71s.07.03.1.04l.1-.18-.05.19.07.02c.09.02.19.04.28.04s.18-.01.28-.04l.07-.02-.08-.18.13.17s.07-.02.1-.04l13.97-6.71c.37-.18.6-.53.6-.93ZM59.73,51.24h0s0,0,0,0h0ZM60.29,51.23h0s0,0,0,0ZM60,32.87l-11.54-5.55,11.41-5.46,11.66,5.47-11.52,5.54ZM72.87,43.1l-11.78,5.66v-14.09l11.78-5.66v14.09ZM74.38,26.58s0,0,0,0h0s0,0,0,0Z"/>
      <path class="cls-1" d="M91.68,55.17c0-.08-.01-.16-.04-.25l-.02-.06c-.02-.07-.05-.13-.09-.19l-.19.08.16-.13c-.05-.07-.1-.13-.17-.19l-.04-.04c-.06-.05-.12-.09-.17-.11l-14.16-6.65c-.31-.14-.67-.14-.98,0l-13.86,6.64c-.07.03-.13.08-.18.12l.12.16-.17-.13c-.06.06-.12.12-.17.19l-.03.05c-.04.06-.06.12-.09.2l-.02.05c-.02.09-.04.17-.04.26v16.41c0,.39.23.75.6.93l13.97,6.71s.07.03.15.05l.07.02c.09.02.19.04.28.04s.18-.01.28-.04l.11-.04s.07-.02.11-.04l13.97-6.71c.37-.18.6-.53.6-.93v-16.42h0ZM76.34,79.1h0s0,0,0,0h0ZM76.61,60.73l-11.54-5.54,11.41-5.46,11.66,5.47-11.52,5.54ZM89.49,70.96l-11.78,5.66v-14.09l11.78-5.66v14.09ZM90.99,54.44s0,0,0,0h0s0,0,0,0Z"/>
      <path class="cls-1" d="M58.45,55.18h0c0-.09-.01-.17-.04-.26,0-.02-.01-.04-.02-.07-.02-.07-.05-.13-.09-.19l-.19.08.16-.13c-.05-.07-.1-.13-.17-.19l-.04-.03c-.06-.05-.12-.09-.17-.11l-14.16-6.65c-.31-.14-.67-.14-.98,0l-13.86,6.64c-.07.03-.13.07-.18.12l.12.16-.17-.13c-.06.06-.12.12-.17.19l-.03.05c-.04.06-.06.12-.09.2l-.02.05c-.02.09-.04.17-.04.26v16.41c0,.39.23.75.6.93l13.97,6.71s.07.03.15.05l.07.02c.09.02.19.04.28.04s.18-.01.28-.04l.11-.04s.07-.02.11-.04l13.97-6.71c.37-.18.6-.53.6-.93v-16.42s0,0,0,0ZM43.12,79.1h0s0,0,0,0h0ZM43.39,60.73l-11.54-5.54,11.41-5.46,11.66,5.47-11.52,5.54ZM56.26,70.96l-11.78,5.66v-14.09l11.78-5.66v14.09ZM57.76,54.44s0,0,0,0h0s0,0,0,0Z"/>
    </g>
  </g>
</svg>