<?xml version="1.0" encoding="UTF-8"?><svg id="uuid-a4096a0e-a8c9-4636-b239-80616a513563" xmlns="http://www.w3.org/2000/svg" viewBox="0 0 53 53"><defs><style>.uuid-e4ebe4b7-f8ed-480a-933d-9222d0f9edaf{fill:#2677c0;stroke-width:0px;}</style></defs><path class="uuid-e4ebe4b7-f8ed-480a-933d-9222d0f9edaf" d="M8.03,26.5v19.31c0,2.59,2.1,4.69,4.69,4.69h27.57c2.59,0,4.69-2.1,4.69-4.69v-19.27c0-2.59-2.1-4.69-4.69-4.69h-.8s-.04-.02-.04-.04v-5.96c0-6.98-5.35-13.01-12.33-13.34-7.42-.35-13.56,5.59-13.56,12.93v6.37l-.86.03c-2.58,0-4.67,2.09-4.67,4.65ZM17.33,15.44c0-5.25,4.44-9.49,9.77-9.15,4.89.31,8.58,4.61,8.58,9.51v6.01s-.86.03-.86.03h-17.49v-6.41ZM13.38,25.62h26.25c.87,0,1.58.71,1.58,1.58v17.46c0,1.14-.92,2.07-2.07,2.07H13.87c-1.14,0-2.07-.93-2.07-2.07v-17.46c0-.87.71-1.58,1.58-1.58Z"/><path class="uuid-e4ebe4b7-f8ed-480a-933d-9222d0f9edaf" d="M33.5,36.4v-.45c0-.52-.42-.94-.94-.94h-1.56c-.11-.42-.28-.82-.5-1.19l1.1-1.1c.37-.37.37-.96,0-1.33l-.32-.32c-.37-.37-.96-.37-1.33,0l-1.1,1.1c-.37-.22-.76-.39-1.19-.5v-1.56c0-.52-.42-.94-.94-.94h-.45c-.52,0-.94.42-.94.94v1.56c-.42.11-.82.28-1.19.5l-1.1-1.1c-.37-.37-.96-.37-1.33,0l-.32.32c-.37.37-.37.96,0,1.33l1.1,1.1c-.22.37-.39.76-.5,1.19h-1.56c-.52,0-.94.42-.94.94v.45c0,.52.42.94.94.94h1.56c.11.42.28.82.5,1.19l-1.1,1.1c-.37.37-.37.96,0,1.33l.32.32c.37.37.96.37,1.33,0l1.1-1.1c.37.22.76.39,1.19.5v1.56c0,.52.42.94.94.94h.45c.52,0,.94-.42.94-.94v-1.56c.42-.11.82-.28,1.19-.5l1.1,1.1c.37.37.96.37,1.33,0l.32-.32c.37-.37.37-.96,0-1.33l-1.1-1.1c.22-.37.39-.76.5-1.19h1.56c.52,0,.94-.42.94-.94ZM26.5,38.51c-1.29,0-2.33-1.05-2.33-2.33s1.05-2.33,2.33-2.33,2.33,1.05,2.33,2.33-1.05,2.33-2.33,2.33Z"/></svg>