<?xml version="1.0" encoding="UTF-8"?><svg id="uuid-0e728e11-5c30-49ed-860e-b2523b4cc1de" xmlns="http://www.w3.org/2000/svg" viewBox="0 0 53 53"><defs><style>.uuid-0fe1083c-5866-4067-90e5-4237dc1e712c{fill:#2677c0;stroke-width:0px;}</style></defs><path class="uuid-0fe1083c-5866-4067-90e5-4237dc1e712c" d="M34.65,2.5H11.73c-2.38,0-4.3,1.93-4.3,4.3v39.4c0,2.38,1.93,4.3,4.3,4.3h29.55c2.38,0,4.3-1.93,4.3-4.3V13.43l-10.93-10.93ZM11.1,45.14V7.86c0-.93.75-1.68,1.68-1.68h19.27v9.85h9.85v29.11c0,.93-.75,1.68-1.68,1.68H12.78c-.93,0-1.68-.75-1.68-1.68Z"/><polygon class="uuid-0fe1083c-5866-4067-90e5-4237dc1e712c" points="15.8 26.92 18.04 24.69 20.28 26.92 21.86 25.33 19.63 23.1 21.86 20.86 20.28 19.27 18.04 21.51 15.8 19.27 14.21 20.86 16.45 23.1 14.21 25.33 15.8 26.92"/><polygon class="uuid-0fe1083c-5866-4067-90e5-4237dc1e712c" points="17.87 35.93 15.8 33.86 14.21 35.46 17.87 39.11 22.96 34.02 21.37 32.43 17.87 35.93"/><rect class="uuid-0fe1083c-5866-4067-90e5-4237dc1e712c" x="27.39" y="21.36" width="10.83" height="3"/><rect class="uuid-0fe1083c-5866-4067-90e5-4237dc1e712c" x="27.39" y="33.87" width="10.83" height="3"/></svg>