<?xml version="1.0" encoding="UTF-8"?>
<svg id="Layer_1" data-name="Layer 1" xmlns="http://www.w3.org/2000/svg" viewBox="0 0 120 120">
  <defs>
    <style>
      .cls-1 {
        fill: #8c31ed;
        stroke-width: 0px;
      }
    </style>
  </defs>
  <path class="cls-1" d="M90.74,82.06h-10.49c-1.1,0-2-.9-2-2s.9-2,2-2h10.49c7.92,0,14.36-6.44,14.36-14.36,0-7.16-5.34-13.28-12.43-14.23l-1.69-.23-.04-1.71c-.29-12.19-10.45-22.11-22.65-22.11-8.63,0-16.4,4.8-20.27,12.54l-.7,1.4-1.52-.34c-1.21-.27-2.44-.41-3.66-.41-8.85,0-16.21,6.91-16.76,15.73l-.1,1.54-1.51.3c-5.15,1.02-8.89,5.58-8.89,10.83,0,6.09,4.96,11.05,11.05,11.05h13.27c1.1,0,2,.9,2,2s-.9,2-2,2h-13.27c-8.3,0-15.05-6.75-15.05-15.05,0-6.65,4.39-12.48,10.64-14.39,1.37-10.21,10.15-18.01,20.6-18.01,1.01,0,2.02.07,3.02.22,4.75-8.31,13.48-13.41,23.13-13.41,13.8,0,25.39,10.8,26.56,24.38,8.23,1.89,14.25,9.31,14.25,17.9,0,10.13-8.24,18.36-18.36,18.36Z"/>
  <path class="cls-1" d="M75.18,79.03l-2.68-.52c-.36-.07-.64-.33-.76-.67-.36-1.02-.84-1.98-1.43-2.87-.21-.32-.24-.72-.05-1.06l1.27-2.27c.24-.42.14-.95-.23-1.26l-3.07-2.56c-.37-.31-.92-.31-1.29,0l-2.23,1.9c-.27.23-.64.29-.98.18-.93-.31-1.91-.52-2.92-.61-.38-.03-.71-.26-.86-.62l-1.06-2.61c-.18-.45-.66-.7-1.13-.6l-3.91.8c-.48.1-.81.53-.8,1.01l.1,3.14c.01.36-.17.68-.47.88-.78.51-1.5,1.09-2.14,1.75-.26.27-.65.38-1.01.27l-2.87-.85c-.46-.14-.96.08-1.17.51l-1.81,3.56c-.22.43-.1.96.29,1.26l2.57,1.92c.29.22.43.57.39.93-.05.45-.09.91-.09,1.37s.03.89.08,1.33c.04.37-.11.74-.42.95l-2.47,1.73c-.39.28-.54.79-.34,1.23l1.65,3.64c.2.44.69.68,1.16.55l2.99-.79c.35-.09.73.02.98.28.67.68,1.41,1.29,2.22,1.82.31.2.5.54.47.91l-.18,2.85c-.03.48.29.91.75,1.03l3.87.97c.47.12.96-.12,1.16-.57l1.16-2.63c.15-.34.48-.56.84-.59,1.06-.09,2.07-.31,3.04-.65.35-.12.74-.06,1.02.19l1.95,1.77c.36.32.89.35,1.28.05l3.18-2.42c.39-.3.51-.83.28-1.26l-1.26-2.41c-.17-.33-.14-.72.06-1.02.59-.9,1.07-1.89,1.42-2.93.12-.36.42-.63.79-.69l2.49-.41c.48-.08.83-.48.84-.96l.09-3.99c.01-.49-.33-.91-.81-1ZM59.65,90.12c-4.47,0-8.09-3.62-8.09-8.09s3.62-8.09,8.09-8.09,8.09,3.62,8.09,8.09-3.62,8.09-8.09,8.09Z"/>
  <path class="cls-1" d="M88.61,56.73l-1.81-.35c-.24-.05-.43-.22-.51-.45-.24-.69-.57-1.34-.96-1.94-.14-.22-.16-.49-.04-.71l.86-1.54c.16-.28.09-.64-.16-.85l-2.07-1.73c-.25-.21-.62-.21-.87,0l-1.51,1.28c-.18.16-.44.2-.66.12-.63-.21-1.29-.35-1.97-.41-.26-.02-.48-.18-.58-.42l-.72-1.76c-.12-.3-.44-.47-.76-.41l-2.64.54c-.32.07-.55.35-.54.68l.07,2.12c0,.24-.12.46-.32.59-.53.34-1.01.74-1.45,1.18-.18.18-.44.26-.68.19l-1.94-.57c-.31-.09-.65.05-.79.34l-1.22,2.4c-.15.29-.07.65.2.85l1.74,1.3c.2.15.29.39.26.63-.04.3-.06.61-.06.93s.02.6.05.9c.03.25-.08.5-.28.64l-1.67,1.17c-.27.19-.36.54-.23.83l1.12,2.46c.14.3.47.46.79.37l2.02-.53c.24-.06.49.01.66.19.45.46.95.87,1.5,1.23.21.14.34.37.32.62l-.12,1.93c-.02.32.19.62.51.7l2.62.66c.32.08.65-.08.78-.38l.79-1.78c.1-.23.32-.38.57-.4.71-.06,1.4-.21,2.05-.44.24-.08.5-.04.69.13l1.32,1.19c.24.22.6.23.86.04l2.15-1.63c.26-.2.34-.56.19-.85l-.85-1.63c-.12-.22-.09-.48.04-.69.4-.61.72-1.27.96-1.98.08-.24.28-.42.53-.47l1.68-.28c.32-.05.56-.33.57-.65l.06-2.7c0-.33-.22-.62-.55-.68ZM78.12,64.22c-3.02,0-5.46-2.45-5.46-5.46s2.45-5.46,5.46-5.46,5.46,2.45,5.46,5.46-2.45,5.46-5.46,5.46Z"/>
</svg>