<?xml version="1.0" encoding="UTF-8"?><svg id="uuid-986eb606-64c3-4a21-ac9f-65de80c6bc89" xmlns="http://www.w3.org/2000/svg" viewBox="0 0 63 53"><defs><style>.uuid-89c32749-17c9-45d1-adb5-77b8e6f6a9f5{fill:#2677c0;stroke-width:0px;}</style></defs><path class="uuid-89c32749-17c9-45d1-adb5-77b8e6f6a9f5" d="M61.53,34c0,1.21-.98,2.19-2.19,2.19h-8.83c-2.71,0-4.92-2.21-4.92-4.92v-10.3c0-1.69-1.38-3.07-3.07-3.07s-3.07,1.38-3.07,3.07v22.09c0,4.1-3.34,7.44-7.44,7.44h-.63c-4.1,0-7.44-3.34-7.44-7.44V9.94c0-1.69-1.38-3.07-3.07-3.07h-.84c-1.69,0-3.07,1.38-3.07,3.07v21.12c0,2.71-2.21,4.92-4.92,4.92H3.66c-1.21,0-2.19-.98-2.19-2.19s.98-2.19,2.19-2.19h8.41c.3,0,.55-.24.55-.55V9.94c0-4.1,3.34-7.44,7.44-7.44h.84c4.1,0,7.44,3.34,7.44,7.44v33.12c0,1.69,1.38,3.07,3.07,3.07h.63c1.69,0,3.07-1.38,3.07-3.07v-22.09c0-4.1,3.34-7.44,7.44-7.44s7.44,3.34,7.44,7.44v10.3c0,.3.24.55.55.55h8.83c1.21,0,2.19.98,2.19,2.19Z"/></svg>