<?xml version="1.0" encoding="UTF-8"?><svg id="uuid-a6c24fd4-72fd-4eef-9df6-10f5ae8a8b63" xmlns="http://www.w3.org/2000/svg" viewBox="0 0 53 53"><defs><style>.uuid-c5694c90-f5da-4ab2-8d92-17258045b106{fill:#2677c0;stroke-width:0px;}</style></defs><path class="uuid-c5694c90-f5da-4ab2-8d92-17258045b106" d="M22.69,2.5c-5.99,0-10.87,4.88-10.87,10.87s4.88,10.87,10.87,10.87,10.87-4.88,10.87-10.87S28.68,2.5,22.69,2.5ZM22.69,20.43c-3.89,0-7.06-3.17-7.06-7.06s3.17-7.06,7.06-7.06,7.06,3.17,7.06,7.06-3.17,7.06-7.06,7.06Z"/><path class="uuid-c5694c90-f5da-4ab2-8d92-17258045b106" d="M1.4,50.48h28.55v-4.73H6.13v-.34c0-6.56,6.81-11.15,16.56-11.15,2.61,0,5.05.33,7.26.99v-4.89c-2.32-.55-4.76-.83-7.26-.83-12.53,0-21.29,6.53-21.29,15.88v5.07Z"/><path class="uuid-c5694c90-f5da-4ab2-8d92-17258045b106" d="M51.6,40.34v-.68c0-.78-.63-1.41-1.41-1.41h-2.34c-.16-.64-.42-1.23-.74-1.78l1.65-1.65c.55-.55.55-1.44,0-2l-.48-.48c-.55-.55-1.44-.55-2,0l-1.65,1.65c-.55-.33-1.15-.58-1.78-.74v-2.34c0-.78-.63-1.41-1.41-1.41h-.68c-.78,0-1.41.63-1.41,1.41v2.34c-.64.16-1.23.42-1.78.74l-1.65-1.65c-.55-.55-1.44-.55-2,0l-.48.48c-.55.55-.55,1.44,0,2l1.65,1.65c-.33.55-.58,1.15-.74,1.78h-2.34c-.78,0-1.41.63-1.41,1.41v.68c0,.78.63,1.41,1.41,1.41h2.34c.16.64.42,1.23.74,1.78l-1.66,1.66c-.55.55-.55,1.44,0,2l.48.48c.55.55,1.44.55,2,0l1.65-1.65c.55.33,1.15.58,1.78.74v2.34c0,.78.63,1.41,1.41,1.41h.68c.78,0,1.41-.63,1.41-1.41v-2.34c.64-.16,1.23-.42,1.78-.74l1.65,1.65c.55.55,1.44.55,2,0l.48-.48c.55-.55.55-1.44,0-2l-1.66-1.66c.33-.55.58-1.15.74-1.78h2.34c.78,0,1.41-.63,1.41-1.41ZM41.1,43.5c-1.93,0-3.5-1.57-3.5-3.5s1.57-3.5,3.5-3.5,3.5,1.57,3.5,3.5-1.57,3.5-3.5,3.5Z"/></svg>