<?xml version="1.0" encoding="UTF-8"?><svg id="uuid-fe8d7e05-5eab-4b9e-8db2-83c4b7f78029" xmlns="http://www.w3.org/2000/svg" viewBox="0 0 53 53"><defs><style>.uuid-f16a8d8a-61fb-478b-9d15-6ac7b62d0216{fill:#2677c0;stroke-width:0px;}</style></defs><path class="uuid-f16a8d8a-61fb-478b-9d15-6ac7b62d0216" d="M22.7,2.5c-5.99,0-10.87,4.88-10.87,10.87s4.88,10.87,10.87,10.87,10.87-4.88,10.87-10.87S28.69,2.5,22.7,2.5ZM22.7,20.44c-3.9,0-7.06-3.17-7.06-7.06s3.17-7.06,7.06-7.06,7.06,3.17,7.06,7.06-3.17,7.06-7.06,7.06Z"/><path class="uuid-f16a8d8a-61fb-478b-9d15-6ac7b62d0216" d="M1.4,50.5h28.56v-4.73H6.13v-.34c0-6.57,6.81-11.15,16.56-11.15,2.61,0,5.05.33,7.27.99v-4.89c-2.32-.55-4.76-.83-7.27-.83-12.54,0-21.3,6.53-21.3,15.89v5.07Z"/><polygon class="uuid-f16a8d8a-61fb-478b-9d15-6ac7b62d0216" points="51.6 37.65 43.49 37.65 43.49 29.54 38.75 29.54 38.75 37.65 30.64 37.65 30.64 42.39 38.75 42.39 38.75 50.5 43.49 50.5 43.49 42.39 51.6 42.39 51.6 37.65"/></svg>